<?xml version="1.0" encoding="utf-8"?>
<!-- Generator: Adobe Illustrator 22.0.0, SVG Export Plug-In . SVG Version: 6.00 Build 0)  -->
<svg version="1.1" id="Layer_1" xmlns="http://www.w3.org/2000/svg" xmlns:xlink="http://www.w3.org/1999/xlink" x="0px" y="0px"
	 viewBox="0 0 386 109.3" style="enable-background:new 0 0 386 109.3;" xml:space="preserve">
<style type="text/css">
	.st0{fill:#FFFFFF;}
	.st1{fill:#7B9452;}
	.st2{fill:#EC1C24;}
	.st3{fill:#024663;}
</style>
<g>
	<path class="st0" d="M66.8,29.6c5.3-0.8,5.5,0,5.4,0.6c-0.1,0.5-0.7,0.5-0.7,0.5s-7.7-1.5-31.9,19.1c3.6,5.1,6.4,13,4,14.3
		c-2.4,1.3-5.1-6-9.6-7.3c-4.5-1.3-4.5-1.6-15.9,8.3c-10.1,7.7-6-2.4-1.5-5.9c4.5-3.5,10.5-9.3,10.9-11.5c0.4-2.2-3.8-4.5-2.9-11.3
		c0.1-0.8,0.1-0.8,0.5-1.7c1.5-3.6,2.3,0.5,4.6,3.7c2.6,3.5,4.3,4.2,4.3,4.2S52.5,31.7,66.8,29.6"/>
	<path class="st0" d="M24.1,47.5c0,0-32.8-20.5-14-35.3C24.3,4,27.5,23.6,27.5,23.6s7.4-14.5,16.4-8.5c10,6.6-3.5,18.3-9.3,22.3
		c-0.7-1,7.4-8.9,3.6-11.8c-3.6-2.8-6.5,1-10.6,5.9c-2.2,2.6-4.6-12.9-11.2-9.2c-5.8,3.3-0.6,13.6,6.8,22.5
		C24.6,46.7,24.1,47.5,24.1,47.5"/>
	<path class="st0" d="M24.2,47.4c0,0-30.3-24-12.5-35.6c14.4-7.2,17.3,13,17.3,13s7.4-15.8,15.8-9.1c9.3,7.3-4,18.5-10,22.1
		c-0.7-1.1,8.3-10,4.8-13.2c-3.4-3.1-9.1,2.6-11.6,6.1c-2,2.7-3.8-12.9-10.6-9.7c-6,2.8-0.7,14.2,5.9,23.7
		C24.8,46.7,24.2,47.4,24.2,47.4"/>
</g>
<path class="st0" d="M375.5,10.4c0.4,0,0.8,0.1,1.1,0.3c0.4,0.2,0.7,0.5,0.9,0.9c0.2,0.4,0.3,0.8,0.3,1.2c0,0.4-0.1,0.8-0.3,1.1
	c-0.2,0.4-0.5,0.7-0.9,0.9c-0.4,0.2-0.7,0.3-1.1,0.3c-0.4,0-0.8-0.1-1.1-0.3c-0.4-0.2-0.7-0.5-0.9-0.9c-0.2-0.4-0.3-0.7-0.3-1.1
	c0-0.4,0.1-0.8,0.3-1.2c0.2-0.4,0.5-0.7,0.9-0.9C374.7,10.5,375.1,10.4,375.5,10.4 M375.5,10.7c-0.3,0-0.6,0.1-0.9,0.3
	c-0.3,0.2-0.5,0.4-0.7,0.7c-0.2,0.3-0.3,0.6-0.3,1c0,0.3,0.1,0.7,0.3,1c0.2,0.3,0.4,0.5,0.7,0.7c0.3,0.2,0.6,0.3,1,0.3
	c0.3,0,0.7-0.1,1-0.3c0.3-0.2,0.5-0.4,0.7-0.7c0.2-0.3,0.3-0.6,0.3-1c0-0.3-0.1-0.7-0.3-1c-0.2-0.3-0.4-0.5-0.7-0.7
	C376.1,10.8,375.8,10.7,375.5,10.7 M374.5,13.9v-2.5h0.9c0.3,0,0.5,0,0.6,0.1c0.1,0,0.2,0.1,0.3,0.2c0.1,0.1,0.1,0.2,0.1,0.4
	c0,0.2-0.1,0.3-0.2,0.5c-0.1,0.1-0.3,0.2-0.5,0.2c0.1,0,0.2,0.1,0.2,0.1c0.1,0.1,0.2,0.3,0.4,0.5l0.3,0.5h-0.5l-0.2-0.4
	c-0.2-0.3-0.3-0.5-0.4-0.6c-0.1-0.1-0.2-0.1-0.3-0.1h-0.2v1.1H374.5z M374.9,12.6h0.5c0.2,0,0.4,0,0.5-0.1c0.1-0.1,0.1-0.2,0.1-0.3
	c0-0.1,0-0.1-0.1-0.2c0-0.1-0.1-0.1-0.2-0.1c-0.1,0-0.2,0-0.4,0h-0.5V12.6z"/>
<path class="st0" d="M243.6,10.5H76.1v4.3h167.5V10.5z M119.5,56.1c0,4.4,3.9,4.4,3.9,4.4h13v-5.3c-1.9,0-4.1-2.4-4.1-2.4V33.4
	c0-5-4.7-5.1-4.7-5.1h-50V34c4.8,0,4.3,3.4,4.3,3.4v22.5h14.6V36.2c0-0.4,0.4-2.4,2.5-2.4c2.2,0,2.2,2.4,2.2,2.4V60h13.1V36.4
	c0,0-0.4-2.7,2.5-2.7c2.9,0,2.7,2.7,2.7,2.7V56.1z M260.1,10.5h-11.1v15h11.1L260.1,10.5z M76.1,67.6h95.4v-4.3H76.1V67.6z M311,60
	H332c5.3,0,4.7-4.7,4.7-4.7v-7.7h-12.4v3c0,0-0.2,2.4-2.4,2.4c-2.2,0-2.3-2.1-2.3-2.1v-5.5h17V35c0-7.3-6.5-6.7-6.5-6.7H315
	c-8,0-7.1,5.8-7.1,5.8v22.5C307.9,60.3,311,60,311,60 M322,35.2c1.5,0,2.7,0.9,2.7,2.1c0,1.2-1.2,2.1-2.7,2.1
	c-1.5,0-2.7-0.9-2.7-2.1C319.3,36.2,320.5,35.2,322,35.2 M293.6,59.8H306v-5.9c-2.5-0.6-2.6-3.2-2.6-3.2V10.5h-13.1v46.2
	C290.3,59.8,293.6,59.8,293.6,59.8 M244,34.6c0-6.8-6.8-6.5-6.8-6.5h-27.5v7.7l3.1,2v22.2h12.6V37.7c0,0-0.5-3.1,2.5-3.1
	c3.1,0,2.9,3,2.9,3v20.1c0,2.3,2.2,2.3,2.2,2.3h13.5v-5.9c-2.7,0-2.5-1.9-2.5-1.9V34.6z M285.4,32.8h1.7v-5.1h-4.6v-6.5
	c0-3.4,1.8-2.8,1.8-2.8h3.5v-8.2h-12.1c-7.1,0-6.5,6.4-6.5,6.4v10.9h-3.9v5.9c4.1,0,3.9,2.8,3.9,2.8v37h13.2v-37
	C282.4,32.5,285.4,32.8,285.4,32.8 M363.2,42.2l10.3-13.9h-13.3l-3.3,4.7l-3.4-4.8h-12.3l9.2,13.4l-19,25.5h13.9l11.7-16l11,15.8
	H381L363.2,42.2z M175.2,32.3v24.2c0,0-0.2,3.7,4.4,3.7h12.6V67c0,0,0,2-2.6,2c-2.6,0-2.6-2.4-2.6-2.4v-2.5h-12.1v7.3
	c0,0,0.3,3.2,3.7,3.2H200c0,0,4,1,4-5.7V37.3l2.1-2.2V28h-26.6C179.4,28,175.2,27.5,175.2,32.3 M187.5,51.5V37.2
	c0-0.9,0.4-2.6,2.8-2.6c2.4,0,2.7,2.4,2.7,2.4v14.4c0,0-0.4,2.5-3,2.5C187.4,53.9,187.5,51.5,187.5,51.5 M260.2,28.1h-11.5v29.2
	c0,2.7,2.8,2.5,2.8,2.5h13.8V53h-5.1V28.1z M169.1,51.8V33.1c0,0,0.2-5.1-5.1-5.1h-20.3c0,0-5.2-0.4-5.2,5.1v5.3h12.8
	c0,0-0.4-2.8,2.3-2.8c2.6,0,2.8,2.1,2.8,2.8v2.8h-14.8c0,0-3.5-0.1-3.5,4.3V56c0,0-0.5,4.2,5,4.2h29v-5.7
	C172.2,54.5,169.1,54.8,169.1,51.8 M156.4,53.3h-5v-5.8h5V53.3z M206.6,67.6H264v-4.3h-57.3V67.6z M370.5,10.5h-63.6v4.3h63.6V10.5z
	"/>
<path class="st1" d="M300.1,90c-4.9,0.9-9.8,0.9-14.7-1.7V72.8c4.9,2.6,9.8,2.6,14.7,1.7V90z"/>
<path class="st0" d="M314.5,86.6c-4.9,0.9-9.8,2.6-14.7,3.5V74.6c4.9-0.9,9.8-2.6,14.7-3.5V86.6z"/>
<path class="st2" d="M329,88.3c-4.9-2.6-9.8-2.6-14.7-1.7V71.1c4.9-0.9,9.8-0.9,14.7,1.7V88.3z"/>
<g>
	<polygon class="st3" points="287.2,82.9 287.2,78.4 288.7,78.4 289.6,81.5 290.5,78.4 292,78.4 292,82.9 291.1,82.9 291.1,79.4 
		290.1,82.9 289.1,82.9 288.2,79.4 288.2,82.9 	"/>
	<path class="st3" d="M292.1,83H291l0-2.9l-0.8,2.9h-1.1l-0.8-2.8l0,2.8h-1.1v-4.8h1.7l0.8,2.8l0.8-2.8h1.7V83z M291.2,82.8h0.7
		v-4.3h-1.3l-1,3.4l-1-3.4h-1.3v4.3h0.7l0-3.5l0.2,0l1,3.5h0.8l1-3.5l0.2,0L291.2,82.8z"/>
</g>
<g>
	<polygon class="st3" points="287.2,82.9 287.2,78.4 288.7,78.4 289.6,81.5 290.5,78.4 292,78.4 292,82.9 291.1,82.9 291.1,79.4 
		290.1,82.9 289.1,82.9 288.2,79.4 288.2,82.9 	"/>
	<path class="st3" d="M292.1,83H291l0-2.9l-0.8,2.9h-1.1l-0.8-2.8l0,2.8h-1.1v-4.8h1.7l0.8,2.8l0.8-2.8h1.7V83z M291.2,82.8h0.7
		v-4.3h-1.3l-1,3.4l-1-3.4h-1.3v4.3h0.7l0-3.5l0.2,0l1,3.5h0.8l1-3.5l0.2,0L291.2,82.8z"/>
</g>
<g>
	<path class="st3" d="M293.7,80.6l-0.9-0.1c0.1-0.3,0.3-0.6,0.5-0.7c0.2-0.2,0.6-0.2,1.1-0.2c0.4,0,0.7,0,0.9,0.1
		c0.2,0.1,0.4,0.2,0.4,0.4c0.1,0.1,0.1,0.4,0.1,0.8l0,1c0,0.3,0,0.5,0,0.6c0,0.1,0.1,0.3,0.2,0.4h-0.9c0-0.1-0.1-0.1-0.1-0.3
		c0-0.1,0-0.1,0-0.1c-0.2,0.1-0.3,0.3-0.5,0.3c-0.2,0.1-0.4,0.1-0.6,0.1c-0.4,0-0.7-0.1-0.9-0.3c-0.2-0.2-0.3-0.4-0.3-0.7
		c0-0.2,0-0.4,0.1-0.5c0.1-0.1,0.2-0.3,0.4-0.3c0.2-0.1,0.4-0.1,0.8-0.2c0.4-0.1,0.7-0.1,0.9-0.2v-0.1c0-0.2,0-0.3-0.1-0.4
		c-0.1-0.1-0.3-0.1-0.5-0.1c-0.2,0-0.3,0-0.4,0.1C293.8,80.4,293.8,80.5,293.7,80.6 M295,81.3c-0.1,0-0.3,0.1-0.6,0.1
		c-0.3,0.1-0.4,0.1-0.5,0.2c-0.1,0.1-0.2,0.2-0.2,0.3c0,0.1,0,0.2,0.1,0.3c0.1,0.1,0.2,0.1,0.4,0.1c0.2,0,0.3-0.1,0.5-0.2
		c0.1-0.1,0.2-0.2,0.2-0.3c0-0.1,0-0.2,0-0.4V81.3z"/>
	<path class="st3" d="M293.9,83.1c-0.4,0-0.7-0.1-0.9-0.3c-0.2-0.2-0.4-0.5-0.4-0.8c0-0.2,0.1-0.4,0.2-0.6c0.1-0.2,0.3-0.3,0.5-0.4
		c0.2-0.1,0.4-0.2,0.8-0.2c0.4-0.1,0.7-0.1,0.8-0.2v0c0-0.1,0-0.2-0.1-0.3c0,0-0.2-0.1-0.4-0.1c-0.1,0-0.3,0-0.3,0.1
		c-0.1,0-0.1,0.1-0.2,0.3l0,0.1l-1.1-0.2l0-0.1c0.1-0.3,0.3-0.6,0.5-0.8c0.3-0.2,0.6-0.2,1.1-0.2c0.4,0,0.8,0,1,0.1
		c0.2,0.1,0.4,0.2,0.5,0.4c0.1,0.2,0.1,0.4,0.1,0.8l0,1c0,0.3,0,0.5,0,0.6c0,0.1,0.1,0.3,0.2,0.4l0.1,0.2h-1.2l0-0.1
		c0-0.1,0-0.1-0.1-0.2c-0.1,0.1-0.3,0.2-0.4,0.2C294.4,83.1,294.2,83.1,293.9,83.1z M294.3,80.1c0.3,0,0.5,0,0.6,0.1
		c0.1,0.1,0.2,0.2,0.2,0.4v0.2l-0.1,0c-0.2,0.1-0.5,0.1-0.9,0.2c-0.3,0.1-0.6,0.1-0.7,0.2c-0.2,0.1-0.3,0.2-0.4,0.3
		c-0.1,0.1-0.1,0.3-0.1,0.4c0,0.2,0.1,0.5,0.3,0.6c0.2,0.2,0.5,0.2,0.8,0.2c0.2,0,0.4,0,0.6-0.1c0.2-0.1,0.3-0.2,0.5-0.3l0.1-0.1
		l0.1,0.2c0,0,0,0.1,0,0.1c0,0.1,0,0.1,0.1,0.2h0.7c0-0.1-0.1-0.2-0.1-0.3c0-0.1,0-0.4,0-0.7l0-1c0-0.4-0.1-0.6-0.1-0.7
		c-0.1-0.1-0.2-0.2-0.4-0.3c-0.2-0.1-0.5-0.1-0.9-0.1c-0.4,0-0.8,0.1-1,0.2c-0.2,0.1-0.3,0.3-0.4,0.5l0.6,0.1
		c0.1-0.1,0.1-0.2,0.2-0.3C294,80.1,294.1,80.1,294.3,80.1z M294.2,82.5c-0.2,0-0.3-0.1-0.5-0.2c-0.1-0.1-0.2-0.2-0.2-0.4
		c0-0.1,0-0.3,0.2-0.4c0.1-0.1,0.3-0.1,0.6-0.2c0.2,0,0.4-0.1,0.6-0.1l0.1,0v0.3c0,0.2,0,0.4,0,0.5c0,0.1-0.1,0.3-0.3,0.3
		C294.6,82.4,294.4,82.5,294.2,82.5z M294.9,81.5c-0.1,0-0.3,0.1-0.4,0.1c-0.3,0.1-0.4,0.1-0.5,0.1c-0.1,0.1-0.1,0.2-0.1,0.2
		c0,0.1,0,0.2,0.1,0.2c0.1,0.1,0.2,0.1,0.3,0.1c0.1,0,0.3,0,0.4-0.1c0.1-0.1,0.2-0.1,0.2-0.2C294.8,81.9,294.9,81.8,294.9,81.5
		L294.9,81.5z"/>
</g>
<g>
	<path class="st3" d="M293.7,80.6l-0.9-0.1c0.1-0.3,0.3-0.6,0.5-0.7c0.2-0.2,0.6-0.2,1.1-0.2c0.4,0,0.7,0,0.9,0.1
		c0.2,0.1,0.4,0.2,0.4,0.4c0.1,0.1,0.1,0.4,0.1,0.8l0,1c0,0.3,0,0.5,0,0.6c0,0.1,0.1,0.3,0.2,0.4h-0.9c0-0.1-0.1-0.1-0.1-0.3
		c0-0.1,0-0.1,0-0.1c-0.2,0.1-0.3,0.3-0.5,0.3c-0.2,0.1-0.4,0.1-0.6,0.1c-0.4,0-0.7-0.1-0.9-0.3c-0.2-0.2-0.3-0.4-0.3-0.7
		c0-0.2,0-0.4,0.1-0.5c0.1-0.1,0.2-0.3,0.4-0.3c0.2-0.1,0.4-0.1,0.8-0.2c0.4-0.1,0.7-0.1,0.9-0.2v-0.1c0-0.2,0-0.3-0.1-0.4
		c-0.1-0.1-0.3-0.1-0.5-0.1c-0.2,0-0.3,0-0.4,0.1C293.8,80.4,293.8,80.5,293.7,80.6z M295,81.3c-0.1,0-0.3,0.1-0.6,0.1
		c-0.3,0.1-0.4,0.1-0.5,0.2c-0.1,0.1-0.2,0.2-0.2,0.3c0,0.1,0,0.2,0.1,0.3c0.1,0.1,0.2,0.1,0.4,0.1c0.2,0,0.3-0.1,0.5-0.2
		c0.1-0.1,0.2-0.2,0.2-0.3c0-0.1,0-0.2,0-0.4V81.3z"/>
	<path class="st3" d="M293.9,83.1c-0.4,0-0.7-0.1-0.9-0.3c-0.2-0.2-0.4-0.5-0.4-0.8c0-0.2,0.1-0.4,0.2-0.6c0.1-0.2,0.3-0.3,0.5-0.4
		c0.2-0.1,0.4-0.2,0.8-0.2c0.4-0.1,0.7-0.1,0.8-0.2v0c0-0.1,0-0.2-0.1-0.3c0,0-0.2-0.1-0.4-0.1c-0.1,0-0.3,0-0.3,0.1
		c-0.1,0-0.1,0.1-0.2,0.3l0,0.1l-1.1-0.2l0-0.1c0.1-0.3,0.3-0.6,0.5-0.8c0.3-0.2,0.6-0.2,1.1-0.2c0.4,0,0.8,0,1,0.1
		c0.2,0.1,0.4,0.2,0.5,0.4c0.1,0.2,0.1,0.4,0.1,0.8l0,1c0,0.3,0,0.5,0,0.6c0,0.1,0.1,0.3,0.2,0.4l0.1,0.2h-1.2l0-0.1
		c0-0.1,0-0.1-0.1-0.2c-0.1,0.1-0.3,0.2-0.4,0.2C294.4,83.1,294.2,83.1,293.9,83.1z M294.3,80.1c0.3,0,0.5,0,0.6,0.1
		c0.1,0.1,0.2,0.2,0.2,0.4v0.2l-0.1,0c-0.2,0.1-0.5,0.1-0.9,0.2c-0.3,0.1-0.6,0.1-0.7,0.2c-0.2,0.1-0.3,0.2-0.4,0.3
		c-0.1,0.1-0.1,0.3-0.1,0.4c0,0.2,0.1,0.5,0.3,0.6c0.2,0.2,0.5,0.2,0.8,0.2c0.2,0,0.4,0,0.6-0.1c0.2-0.1,0.3-0.2,0.5-0.3l0.1-0.1
		l0.1,0.2c0,0,0,0.1,0,0.1c0,0.1,0,0.1,0.1,0.2h0.7c0-0.1-0.1-0.2-0.1-0.3c0-0.1,0-0.4,0-0.7l0-1c0-0.4-0.1-0.6-0.1-0.7
		c-0.1-0.1-0.2-0.2-0.4-0.3c-0.2-0.1-0.5-0.1-0.9-0.1c-0.4,0-0.8,0.1-1,0.2c-0.2,0.1-0.3,0.3-0.4,0.5l0.6,0.1
		c0.1-0.1,0.1-0.2,0.2-0.3C294,80.1,294.1,80.1,294.3,80.1z M294.2,82.5c-0.2,0-0.3-0.1-0.5-0.2c-0.1-0.1-0.2-0.2-0.2-0.4
		c0-0.1,0-0.3,0.2-0.4c0.1-0.1,0.3-0.1,0.6-0.2c0.2,0,0.4-0.1,0.6-0.1l0.1,0v0.3c0,0.2,0,0.4,0,0.5c0,0.1-0.1,0.3-0.3,0.3
		C294.6,82.4,294.4,82.5,294.2,82.5z M294.9,81.5c-0.1,0-0.3,0.1-0.4,0.1c-0.3,0.1-0.4,0.1-0.5,0.1c-0.1,0.1-0.1,0.2-0.1,0.2
		c0,0.1,0,0.2,0.1,0.2c0.1,0.1,0.2,0.1,0.3,0.1c0.1,0,0.3,0,0.4-0.1c0.1-0.1,0.2-0.1,0.2-0.2C294.8,81.9,294.9,81.8,294.9,81.5
		L294.9,81.5z"/>
</g>
<g>
	<path class="st3" d="M300.1,82.9h-0.9v-0.5c-0.1,0.2-0.3,0.3-0.5,0.4c-0.2,0.1-0.4,0.1-0.6,0.1c-0.4,0-0.8-0.2-1.1-0.5
		c-0.3-0.3-0.4-0.7-0.4-1.3c0-0.6,0.1-1,0.4-1.3c0.3-0.3,0.6-0.4,1.1-0.4c0.4,0,0.7,0.2,1,0.5v-1.6h1V82.9z M297.6,81.2
		c0,0.4,0.1,0.6,0.2,0.8c0.2,0.2,0.4,0.3,0.6,0.3c0.2,0,0.4-0.1,0.6-0.3c0.2-0.2,0.2-0.4,0.2-0.8c0-0.4-0.1-0.7-0.2-0.8
		c-0.1-0.2-0.3-0.2-0.6-0.2c-0.2,0-0.4,0.1-0.6,0.2C297.7,80.6,297.6,80.9,297.6,81.2"/>
	<path class="st3" d="M298.1,83.1c-0.4,0-0.8-0.2-1.1-0.5c-0.3-0.3-0.5-0.8-0.5-1.4c0-0.6,0.2-1,0.5-1.3c0.3-0.3,0.7-0.5,1.2-0.5
		c0.3,0,0.7,0.1,0.9,0.3v-1.5h1.2V83h-1.1v-0.3c-0.1,0.1-0.2,0.2-0.4,0.2C298.6,83.1,298.3,83.1,298.1,83.1z M298.1,79.7
		c-0.4,0-0.7,0.1-1,0.4c-0.3,0.3-0.4,0.7-0.4,1.2c0,0.5,0.1,0.9,0.4,1.2c0.3,0.3,0.6,0.4,1,0.4c0.2,0,0.4,0,0.6-0.1
		c0.2-0.1,0.3-0.2,0.5-0.4l0.2-0.3v0.7h0.7v-4.3h-0.7v1.8l-0.2-0.2C298.8,79.8,298.5,79.7,298.1,79.7z M298.4,82.4
		c-0.3,0-0.6-0.1-0.7-0.4c-0.1-0.2-0.2-0.4-0.2-0.8c0-0.4,0.1-0.6,0.3-0.8c0.2-0.2,0.4-0.3,0.6-0.3c0.3,0,0.5,0.1,0.7,0.3
		c0.2,0.2,0.3,0.5,0.3,0.9c0,0.4-0.1,0.6-0.3,0.8C298.9,82.3,298.6,82.4,298.4,82.4z M298.4,80.3c-0.2,0-0.3,0.1-0.5,0.2
		c-0.1,0.1-0.2,0.4-0.2,0.7c0,0.3,0,0.6,0.1,0.7c0.1,0.2,0.3,0.3,0.5,0.3c0.2,0,0.3-0.1,0.5-0.2c0.1-0.1,0.2-0.4,0.2-0.7
		c0-0.3-0.1-0.6-0.2-0.7C298.7,80.4,298.6,80.3,298.4,80.3z"/>
</g>
<g>
	<path class="st3" d="M300.1,82.9h-0.9v-0.5c-0.1,0.2-0.3,0.3-0.5,0.4c-0.2,0.1-0.4,0.1-0.6,0.1c-0.4,0-0.8-0.2-1.1-0.5
		c-0.3-0.3-0.4-0.7-0.4-1.3c0-0.6,0.1-1,0.4-1.3c0.3-0.3,0.6-0.4,1.1-0.4c0.4,0,0.7,0.2,1,0.5v-1.6h1V82.9z M297.6,81.2
		c0,0.4,0.1,0.6,0.2,0.8c0.2,0.2,0.4,0.3,0.6,0.3c0.2,0,0.4-0.1,0.6-0.3c0.2-0.2,0.2-0.4,0.2-0.8c0-0.4-0.1-0.7-0.2-0.8
		c-0.1-0.2-0.3-0.2-0.6-0.2c-0.2,0-0.4,0.1-0.6,0.2C297.7,80.6,297.6,80.9,297.6,81.2z"/>
	<path class="st3" d="M298.1,83.1c-0.4,0-0.8-0.2-1.1-0.5c-0.3-0.3-0.5-0.8-0.5-1.4c0-0.6,0.2-1,0.5-1.3c0.3-0.3,0.7-0.5,1.2-0.5
		c0.3,0,0.7,0.1,0.9,0.3v-1.5h1.2V83h-1.1v-0.3c-0.1,0.1-0.2,0.2-0.4,0.2C298.6,83.1,298.3,83.1,298.1,83.1z M298.1,79.7
		c-0.4,0-0.7,0.1-1,0.4c-0.3,0.3-0.4,0.7-0.4,1.2c0,0.5,0.1,0.9,0.4,1.2c0.3,0.3,0.6,0.4,1,0.4c0.2,0,0.4,0,0.6-0.1
		c0.2-0.1,0.3-0.2,0.5-0.4l0.2-0.3v0.7h0.7v-4.3h-0.7v1.8l-0.2-0.2C298.8,79.8,298.5,79.7,298.1,79.7z M298.4,82.4
		c-0.3,0-0.6-0.1-0.7-0.4c-0.1-0.2-0.2-0.4-0.2-0.8c0-0.4,0.1-0.6,0.3-0.8c0.2-0.2,0.4-0.3,0.6-0.3c0.3,0,0.5,0.1,0.7,0.3
		c0.2,0.2,0.3,0.5,0.3,0.9c0,0.4-0.1,0.6-0.3,0.8C298.9,82.3,298.6,82.4,298.4,82.4z M298.4,80.3c-0.2,0-0.3,0.1-0.5,0.2
		c-0.1,0.1-0.2,0.4-0.2,0.7c0,0.3,0,0.6,0.1,0.7c0.1,0.2,0.3,0.3,0.5,0.3c0.2,0,0.3-0.1,0.5-0.2c0.1-0.1,0.2-0.4,0.2-0.7
		c0-0.3-0.1-0.6-0.2-0.7C298.7,80.4,298.6,80.3,298.4,80.3z"/>
</g>
<g>
	<path class="st3" d="M303.1,81.9l0.9,0.1c-0.1,0.3-0.3,0.6-0.6,0.7c-0.3,0.2-0.6,0.2-1,0.2c-0.6,0-1.1-0.2-1.4-0.6
		c-0.2-0.3-0.4-0.7-0.4-1.1c0-0.5,0.2-1,0.5-1.3c0.3-0.3,0.7-0.5,1.2-0.5c0.5,0,1,0.2,1.3,0.5c0.3,0.3,0.5,0.8,0.4,1.5h-2.4
		c0,0.3,0.1,0.5,0.2,0.6c0.1,0.1,0.3,0.2,0.5,0.2c0.1,0,0.3,0,0.4-0.1C303,82.2,303.1,82,303.1,81.9 M303.2,81
		c0-0.3-0.1-0.4-0.2-0.6c-0.1-0.1-0.3-0.2-0.5-0.2c-0.2,0-0.4,0.1-0.5,0.2c-0.1,0.1-0.2,0.3-0.2,0.6H303.2z"/>
	<path class="st3" d="M302.5,83.1c-0.7,0-1.2-0.2-1.5-0.6c-0.3-0.3-0.4-0.7-0.4-1.2c0-0.6,0.2-1,0.5-1.4c0.3-0.3,0.8-0.5,1.3-0.5
		c0.6,0,1,0.2,1.3,0.5c0.3,0.3,0.5,0.9,0.5,1.6l0,0.1h-2.4c0,0.2,0.1,0.3,0.2,0.4c0.1,0.1,0.3,0.2,0.5,0.2c0.1,0,0.2,0,0.3-0.1
		c0.1-0.1,0.1-0.2,0.2-0.3l0-0.1l1.2,0.2l0,0.1c-0.1,0.3-0.3,0.6-0.6,0.8C303.3,83,302.9,83.1,302.5,83.1z M302.4,79.7
		c-0.4,0-0.8,0.1-1.1,0.4c-0.3,0.3-0.4,0.7-0.4,1.2c0,0.4,0.1,0.8,0.3,1.1c0.3,0.3,0.7,0.5,1.3,0.5c0.4,0,0.7-0.1,0.9-0.2
		c0.2-0.1,0.4-0.3,0.5-0.5l-0.7-0.1c-0.1,0.1-0.1,0.3-0.2,0.3c-0.1,0.1-0.3,0.1-0.4,0.1c-0.2,0-0.5-0.1-0.6-0.2
		c-0.2-0.2-0.3-0.4-0.3-0.7l0-0.1h2.4c0-0.6-0.1-1-0.4-1.3C303.3,79.8,302.9,79.7,302.4,79.7z M303.3,81.1h-1.6l0-0.1
		c0-0.3,0.1-0.5,0.2-0.6c0.2-0.2,0.4-0.2,0.6-0.2c0.2,0,0.4,0.1,0.6,0.2c0.2,0.2,0.2,0.4,0.2,0.7L303.3,81.1z M301.9,80.9h1.2
		c0-0.2-0.1-0.3-0.2-0.4c-0.1-0.1-0.2-0.2-0.4-0.2c-0.2,0-0.3,0.1-0.4,0.2C302,80.6,301.9,80.7,301.9,80.9z"/>
</g>
<g>
	<path class="st3" d="M303.1,81.9l0.9,0.1c-0.1,0.3-0.3,0.6-0.6,0.7c-0.3,0.2-0.6,0.2-1,0.2c-0.6,0-1.1-0.2-1.4-0.6
		c-0.2-0.3-0.4-0.7-0.4-1.1c0-0.5,0.2-1,0.5-1.3c0.3-0.3,0.7-0.5,1.2-0.5c0.5,0,1,0.2,1.3,0.5c0.3,0.3,0.5,0.8,0.4,1.5h-2.4
		c0,0.3,0.1,0.5,0.2,0.6c0.1,0.1,0.3,0.2,0.5,0.2c0.1,0,0.3,0,0.4-0.1C303,82.2,303.1,82,303.1,81.9z M303.2,81
		c0-0.3-0.1-0.4-0.2-0.6c-0.1-0.1-0.3-0.2-0.5-0.2c-0.2,0-0.4,0.1-0.5,0.2c-0.1,0.1-0.2,0.3-0.2,0.6H303.2z"/>
	<path class="st3" d="M302.5,83.1c-0.7,0-1.2-0.2-1.5-0.6c-0.3-0.3-0.4-0.7-0.4-1.2c0-0.6,0.2-1,0.5-1.4c0.3-0.3,0.8-0.5,1.3-0.5
		c0.6,0,1,0.2,1.3,0.5c0.3,0.3,0.5,0.9,0.5,1.6l0,0.1h-2.4c0,0.2,0.1,0.3,0.2,0.4c0.1,0.1,0.3,0.2,0.5,0.2c0.1,0,0.2,0,0.3-0.1
		c0.1-0.1,0.1-0.2,0.2-0.3l0-0.1l1.2,0.2l0,0.1c-0.1,0.3-0.3,0.6-0.6,0.8C303.3,83,302.9,83.1,302.5,83.1z M302.4,79.7
		c-0.4,0-0.8,0.1-1.1,0.4c-0.3,0.3-0.4,0.7-0.4,1.2c0,0.4,0.1,0.8,0.3,1.1c0.3,0.3,0.7,0.5,1.3,0.5c0.4,0,0.7-0.1,0.9-0.2
		c0.2-0.1,0.4-0.3,0.5-0.5l-0.7-0.1c-0.1,0.1-0.1,0.3-0.2,0.3c-0.1,0.1-0.3,0.1-0.4,0.1c-0.2,0-0.5-0.1-0.6-0.2
		c-0.2-0.2-0.3-0.4-0.3-0.7l0-0.1h2.4c0-0.6-0.1-1-0.4-1.3C303.3,79.8,302.9,79.7,302.4,79.7z M303.3,81.1h-1.6l0-0.1
		c0-0.3,0.1-0.5,0.2-0.6c0.2-0.2,0.4-0.2,0.6-0.2c0.2,0,0.4,0.1,0.6,0.2c0.2,0.2,0.2,0.4,0.2,0.7L303.3,81.1z M301.9,80.9h1.2
		c0-0.2-0.1-0.3-0.2-0.4c-0.1-0.1-0.2-0.2-0.4-0.2c-0.2,0-0.3,0.1-0.4,0.2C302,80.6,301.9,80.7,301.9,80.9z"/>
</g>
<g>
	<path class="st3" d="M306.8,78.4h1v0.8h-1V78.4z M306.8,79.6h1v3.3h-1V79.6z"/>
	<path class="st3" d="M307.9,83h-1.2v-3.5h1.2V83z M306.9,82.8h0.7v-3.1h-0.7V82.8z M307.9,79.3h-1.2v-1h1.2V79.3z M306.9,79.1h0.7
		v-0.6h-0.7V79.1z"/>
</g>
<g>
	<path class="st3" d="M306.8,78.4h1v0.8h-1V78.4z M306.8,79.6h1v3.3h-1V79.6z"/>
	<path class="st3" d="M307.9,83h-1.2v-3.5h1.2V83z M306.9,82.8h0.7v-3.1h-0.7V82.8z M307.9,79.3h-1.2v-1h1.2V79.3z M306.9,79.1h0.7
		v-0.6h-0.7V79.1z"/>
</g>
<g>
	<path class="st3" d="M312,82.9H311v-1.7c0-0.4,0-0.6-0.1-0.7c0-0.1-0.1-0.2-0.2-0.2c-0.1-0.1-0.2-0.1-0.3-0.1c-0.2,0-0.3,0-0.4,0.1
		c-0.1,0.1-0.2,0.2-0.3,0.3c0,0.1-0.1,0.4-0.1,0.8v1.5h-1v-3.3h0.9v0.5c0.3-0.4,0.7-0.6,1.2-0.6c0.2,0,0.4,0,0.6,0.1
		c0.2,0.1,0.3,0.2,0.4,0.3c0.1,0.1,0.1,0.2,0.2,0.4c0,0.1,0.1,0.3,0.1,0.6V82.9z"/>
	<path class="st3" d="M312.1,83h-1.2v-1.8c0-0.4,0-0.6-0.1-0.6c0-0.1-0.1-0.1-0.2-0.2c-0.2-0.1-0.5-0.1-0.6,0
		c-0.1,0.1-0.2,0.2-0.2,0.3c0,0.1-0.1,0.3-0.1,0.7V83h-1.2v-3.5h1.1v0.3c0.3-0.3,0.7-0.4,1.1-0.4c0.2,0,0.4,0,0.6,0.1
		c0.2,0.1,0.3,0.2,0.4,0.3c0.1,0.1,0.2,0.3,0.2,0.4c0,0.2,0.1,0.4,0.1,0.6V83z M311.1,82.8h0.7v-1.9c0-0.2,0-0.4,0-0.6
		c0-0.1-0.1-0.2-0.2-0.3c-0.1-0.1-0.2-0.2-0.3-0.2c-0.2-0.1-0.3-0.1-0.5-0.1c-0.4,0-0.8,0.2-1.1,0.5l-0.2,0.2v-0.7h-0.7v3.1h0.7
		v-1.4c0-0.4,0-0.6,0.1-0.8c0.1-0.2,0.2-0.3,0.3-0.4c0.1-0.1,0.3-0.1,0.5-0.1c0.1,0,0.3,0,0.4,0.1c0.1,0.1,0.2,0.2,0.2,0.3
		c0,0.1,0.1,0.2,0.1,0.7V82.8z"/>
</g>
<g>
	<path class="st3" d="M312,82.9H311v-1.7c0-0.4,0-0.6-0.1-0.7c0-0.1-0.1-0.2-0.2-0.2c-0.1-0.1-0.2-0.1-0.3-0.1c-0.2,0-0.3,0-0.4,0.1
		c-0.1,0.1-0.2,0.2-0.3,0.3c0,0.1-0.1,0.4-0.1,0.8v1.5h-1v-3.3h0.9v0.5c0.3-0.4,0.7-0.6,1.2-0.6c0.2,0,0.4,0,0.6,0.1
		c0.2,0.1,0.3,0.2,0.4,0.3c0.1,0.1,0.1,0.2,0.2,0.4c0,0.1,0.1,0.3,0.1,0.6V82.9z"/>
	<path class="st3" d="M312.1,83h-1.2v-1.8c0-0.4,0-0.6-0.1-0.6c0-0.1-0.1-0.1-0.2-0.2c-0.2-0.1-0.5-0.1-0.6,0
		c-0.1,0.1-0.2,0.2-0.2,0.3c0,0.1-0.1,0.3-0.1,0.7V83h-1.2v-3.5h1.1v0.3c0.3-0.3,0.7-0.4,1.1-0.4c0.2,0,0.4,0,0.6,0.1
		c0.2,0.1,0.3,0.2,0.4,0.3c0.1,0.1,0.2,0.3,0.2,0.4c0,0.2,0.1,0.4,0.1,0.6V83z M311.1,82.8h0.7v-1.9c0-0.2,0-0.4,0-0.6
		c0-0.1-0.1-0.2-0.2-0.3c-0.1-0.1-0.2-0.2-0.3-0.2c-0.2-0.1-0.3-0.1-0.5-0.1c-0.4,0-0.8,0.2-1.1,0.5l-0.2,0.2v-0.7h-0.7v3.1h0.7
		v-1.4c0-0.4,0-0.6,0.1-0.8c0.1-0.2,0.2-0.3,0.3-0.4c0.1-0.1,0.3-0.1,0.5-0.1c0.1,0,0.3,0,0.4,0.1c0.1,0.1,0.2,0.2,0.2,0.3
		c0,0.1,0.1,0.2,0.1,0.7V82.8z"/>
</g>
<g>
	<rect x="314.8" y="78.4" class="st3" width="1" height="4.5"/>
	<path class="st3" d="M315.9,83h-1.2v-4.8h1.2V83z M315,82.8h0.8v-4.3H315V82.8z"/>
</g>
<g>
	<rect x="314.8" y="78.4" class="st3" width="1" height="4.5"/>
	<path class="st3" d="M315.9,83h-1.2v-4.8h1.2V83z M315,82.8h0.8v-4.3H315V82.8z"/>
</g>
<g>
	<path class="st3" d="M318.4,79.6v0.7h-0.6v1.3c0,0.3,0,0.4,0,0.5c0,0,0,0.1,0.1,0.1c0,0,0.1,0,0.2,0c0.1,0,0.2,0,0.4-0.1l0.1,0.7
		c-0.2,0.1-0.5,0.1-0.7,0.1c-0.2,0-0.3,0-0.5-0.1c-0.1-0.1-0.2-0.1-0.3-0.2c-0.1-0.1-0.1-0.2-0.1-0.3c0-0.1,0-0.3,0-0.6v-1.4h-0.4
		v-0.7h0.4V79l1-0.5v1.2H318.4z"/>
	<path class="st3" d="M317.8,83.1c-0.2,0-0.4,0-0.5-0.1c-0.2-0.1-0.3-0.1-0.4-0.2c-0.1-0.1-0.1-0.2-0.2-0.4c0-0.1,0-0.3,0-0.6v-1.3
		h-0.4v-0.9h0.4v-0.6l1.2-0.6v1.2h0.6v0.9h-0.6v1.2c0,0.3,0,0.4,0,0.4c0,0,0,0,0,0c0.1,0,0.1,0.1,0.4-0.1l0.1,0l0.1,0.9l-0.1,0
		C318.3,83.1,318,83.1,317.8,83.1z M316.5,80.2h0.4v1.5c0,0.3,0,0.5,0,0.6c0,0.1,0.1,0.2,0.1,0.3c0.1,0.1,0.1,0.1,0.3,0.2
		c0.1,0,0.3,0.1,0.4,0.1c0.2,0,0.4,0,0.6-0.1l-0.1-0.5c-0.3,0.1-0.4,0.1-0.5,0c-0.1,0-0.1-0.1-0.1-0.2c0,0,0-0.1,0-0.5v-1.4h0.6
		v-0.5h-0.6v-1.1l-0.7,0.4v0.7h-0.4V80.2z"/>
</g>
<g>
	<path class="st3" d="M318.4,79.6v0.7h-0.6v1.3c0,0.3,0,0.4,0,0.5c0,0,0,0.1,0.1,0.1c0,0,0.1,0,0.2,0c0.1,0,0.2,0,0.4-0.1l0.1,0.7
		c-0.2,0.1-0.5,0.1-0.7,0.1c-0.2,0-0.3,0-0.5-0.1c-0.1-0.1-0.2-0.1-0.3-0.2c-0.1-0.1-0.1-0.2-0.1-0.3c0-0.1,0-0.3,0-0.6v-1.4h-0.4
		v-0.7h0.4V79l1-0.5v1.2H318.4z"/>
	<path class="st3" d="M317.8,83.1c-0.2,0-0.4,0-0.5-0.1c-0.2-0.1-0.3-0.1-0.4-0.2c-0.1-0.1-0.1-0.2-0.2-0.4c0-0.1,0-0.3,0-0.6v-1.3
		h-0.4v-0.9h0.4v-0.6l1.2-0.6v1.2h0.6v0.9h-0.6v1.2c0,0.3,0,0.4,0,0.4c0,0,0,0,0,0c0.1,0,0.1,0.1,0.4-0.1l0.1,0l0.1,0.9l-0.1,0
		C318.3,83.1,318,83.1,317.8,83.1z M316.5,80.2h0.4v1.5c0,0.3,0,0.5,0,0.6c0,0.1,0.1,0.2,0.1,0.3c0.1,0.1,0.1,0.1,0.3,0.2
		c0.1,0,0.3,0.1,0.4,0.1c0.2,0,0.4,0,0.6-0.1l-0.1-0.5c-0.3,0.1-0.4,0.1-0.5,0c-0.1,0-0.1-0.1-0.1-0.2c0,0,0-0.1,0-0.5v-1.4h0.6
		v-0.5h-0.6v-1.1l-0.7,0.4v0.7h-0.4V80.2z"/>
</g>
<g>
	<path class="st3" d="M319.8,80.6l-0.9-0.1c0.1-0.3,0.3-0.6,0.5-0.7c0.2-0.2,0.6-0.2,1.1-0.2c0.4,0,0.7,0,0.9,0.1
		c0.2,0.1,0.4,0.2,0.4,0.4c0.1,0.1,0.1,0.4,0.1,0.8l0,1c0,0.3,0,0.5,0,0.6c0,0.1,0.1,0.3,0.2,0.4h-0.9c0-0.1-0.1-0.1-0.1-0.3
		c0-0.1,0-0.1,0-0.1c-0.2,0.1-0.3,0.3-0.5,0.3c-0.2,0.1-0.4,0.1-0.6,0.1c-0.4,0-0.7-0.1-0.9-0.3c-0.2-0.2-0.3-0.4-0.3-0.7
		c0-0.2,0-0.4,0.1-0.5c0.1-0.1,0.2-0.3,0.4-0.3c0.2-0.1,0.4-0.1,0.8-0.2c0.4-0.1,0.7-0.1,0.9-0.2v-0.1c0-0.2,0-0.3-0.1-0.4
		c-0.1-0.1-0.3-0.1-0.5-0.1c-0.2,0-0.3,0-0.4,0.1C319.9,80.4,319.8,80.5,319.8,80.6 M321.1,81.3c-0.1,0-0.3,0.1-0.6,0.1
		c-0.3,0.1-0.4,0.1-0.5,0.2c-0.1,0.1-0.2,0.2-0.2,0.3c0,0.1,0.1,0.2,0.2,0.3c0.1,0.1,0.2,0.1,0.4,0.1c0.2,0,0.3-0.1,0.5-0.2
		c0.1-0.1,0.2-0.2,0.2-0.3c0-0.1,0-0.2,0-0.4V81.3z"/>
	<path class="st3" d="M320,83.1c-0.4,0-0.7-0.1-0.9-0.3c-0.2-0.2-0.4-0.5-0.4-0.8c0-0.2,0.1-0.4,0.2-0.6c0.1-0.2,0.3-0.3,0.5-0.4
		c0.2-0.1,0.4-0.2,0.8-0.2c0.4-0.1,0.7-0.1,0.8-0.2v0c0-0.1,0-0.2-0.1-0.3c0,0-0.1-0.1-0.4-0.1c-0.1,0-0.3,0-0.3,0.1
		c-0.1,0-0.1,0.1-0.2,0.3l0,0.1l-1.1-0.2l0-0.1c0.1-0.3,0.3-0.6,0.5-0.8c0.3-0.2,0.6-0.2,1.1-0.2c0.4,0,0.8,0,1,0.1
		c0.2,0.1,0.4,0.2,0.5,0.4c0.1,0.2,0.1,0.4,0.1,0.8l0,1c0,0.3,0,0.5,0,0.6c0,0.1,0.1,0.3,0.2,0.4l0.1,0.2h-1.2l0-0.1
		c0-0.1,0-0.1-0.1-0.2c-0.1,0.1-0.3,0.2-0.4,0.2C320.5,83.1,320.2,83.1,320,83.1z M320.4,80.1c0.3,0,0.5,0,0.6,0.1
		c0.1,0.1,0.2,0.2,0.2,0.4v0.2l-0.1,0c-0.2,0.1-0.5,0.1-0.9,0.2c-0.3,0.1-0.6,0.1-0.7,0.2c-0.2,0.1-0.3,0.2-0.4,0.3
		c-0.1,0.1-0.1,0.3-0.1,0.4c0,0.2,0.1,0.5,0.3,0.6c0.2,0.2,0.5,0.2,0.8,0.2c0.2,0,0.4,0,0.6-0.1c0.2-0.1,0.3-0.2,0.5-0.3l0.1-0.1
		l0.1,0.2c0,0,0,0.1,0,0.1c0,0.1,0,0.1,0.1,0.2h0.7c0-0.1-0.1-0.2-0.1-0.3c0-0.1-0.1-0.4-0.1-0.7l0-1c0-0.4,0-0.6-0.1-0.7
		c-0.1-0.1-0.2-0.2-0.4-0.3c-0.2-0.1-0.5-0.1-0.9-0.1c-0.4,0-0.8,0.1-1,0.2c-0.2,0.1-0.3,0.3-0.4,0.5l0.6,0.1
		c0.1-0.1,0.1-0.2,0.2-0.3C320.1,80.1,320.2,80.1,320.4,80.1z M320.3,82.5c-0.2,0-0.3-0.1-0.5-0.2c-0.1-0.1-0.2-0.2-0.2-0.4
		c0-0.1,0-0.3,0.2-0.4c0.1-0.1,0.3-0.1,0.6-0.2c0.2,0,0.4-0.1,0.6-0.1l0.1,0v0.3c0,0.2,0,0.4,0,0.5c0,0.1-0.1,0.3-0.3,0.3
		C320.7,82.4,320.5,82.5,320.3,82.5z M320.9,81.5c-0.1,0-0.3,0.1-0.4,0.1c-0.3,0.1-0.4,0.1-0.5,0.1c-0.1,0.1-0.1,0.2-0.1,0.2
		c0,0.1,0,0.2,0.1,0.2c0.2,0.2,0.5,0.1,0.7,0c0.1-0.1,0.2-0.1,0.2-0.2C320.9,81.9,320.9,81.8,320.9,81.5L320.9,81.5z"/>
</g>
<g>
	<path class="st3" d="M319.8,80.6l-0.9-0.1c0.1-0.3,0.3-0.6,0.5-0.7c0.2-0.2,0.6-0.2,1.1-0.2c0.4,0,0.7,0,0.9,0.1
		c0.2,0.1,0.4,0.2,0.4,0.4c0.1,0.1,0.1,0.4,0.1,0.8l0,1c0,0.3,0,0.5,0,0.6c0,0.1,0.1,0.3,0.2,0.4h-0.9c0-0.1-0.1-0.1-0.1-0.3
		c0-0.1,0-0.1,0-0.1c-0.2,0.1-0.3,0.3-0.5,0.3c-0.2,0.1-0.4,0.1-0.6,0.1c-0.4,0-0.7-0.1-0.9-0.3c-0.2-0.2-0.3-0.4-0.3-0.7
		c0-0.2,0-0.4,0.1-0.5c0.1-0.1,0.2-0.3,0.4-0.3c0.2-0.1,0.4-0.1,0.8-0.2c0.4-0.1,0.7-0.1,0.9-0.2v-0.1c0-0.2,0-0.3-0.1-0.4
		c-0.1-0.1-0.3-0.1-0.5-0.1c-0.2,0-0.3,0-0.4,0.1C319.9,80.4,319.8,80.5,319.8,80.6z M321.1,81.3c-0.1,0-0.3,0.1-0.6,0.1
		c-0.3,0.1-0.4,0.1-0.5,0.2c-0.1,0.1-0.2,0.2-0.2,0.3c0,0.1,0.1,0.2,0.2,0.3c0.1,0.1,0.2,0.1,0.4,0.1c0.2,0,0.3-0.1,0.5-0.2
		c0.1-0.1,0.2-0.2,0.2-0.3c0-0.1,0-0.2,0-0.4V81.3z"/>
	<path class="st3" d="M320,83.1c-0.4,0-0.7-0.1-0.9-0.3c-0.2-0.2-0.4-0.5-0.4-0.8c0-0.2,0.1-0.4,0.2-0.6c0.1-0.2,0.3-0.3,0.5-0.4
		c0.2-0.1,0.4-0.2,0.8-0.2c0.4-0.1,0.7-0.1,0.8-0.2v0c0-0.1,0-0.2-0.1-0.3c0,0-0.1-0.1-0.4-0.1c-0.1,0-0.3,0-0.3,0.1
		c-0.1,0-0.1,0.1-0.2,0.3l0,0.1l-1.1-0.2l0-0.1c0.1-0.3,0.3-0.6,0.5-0.8c0.3-0.2,0.6-0.2,1.1-0.2c0.4,0,0.8,0,1,0.1
		c0.2,0.1,0.4,0.2,0.5,0.4c0.1,0.2,0.1,0.4,0.1,0.8l0,1c0,0.3,0,0.5,0,0.6c0,0.1,0.1,0.3,0.2,0.4l0.1,0.2h-1.2l0-0.1
		c0-0.1,0-0.1-0.1-0.2c-0.1,0.1-0.3,0.2-0.4,0.2C320.5,83.1,320.2,83.1,320,83.1z M320.4,80.1c0.3,0,0.5,0,0.6,0.1
		c0.1,0.1,0.2,0.2,0.2,0.4v0.2l-0.1,0c-0.2,0.1-0.5,0.1-0.9,0.2c-0.3,0.1-0.6,0.1-0.7,0.2c-0.2,0.1-0.3,0.2-0.4,0.3
		c-0.1,0.1-0.1,0.3-0.1,0.4c0,0.2,0.1,0.5,0.3,0.6c0.2,0.2,0.5,0.2,0.8,0.2c0.2,0,0.4,0,0.6-0.1c0.2-0.1,0.3-0.2,0.5-0.3l0.1-0.1
		l0.1,0.2c0,0,0,0.1,0,0.1c0,0.1,0,0.1,0.1,0.2h0.7c0-0.1-0.1-0.2-0.1-0.3c0-0.1-0.1-0.4-0.1-0.7l0-1c0-0.4,0-0.6-0.1-0.7
		c-0.1-0.1-0.2-0.2-0.4-0.3c-0.2-0.1-0.5-0.1-0.9-0.1c-0.4,0-0.8,0.1-1,0.2c-0.2,0.1-0.3,0.3-0.4,0.5l0.6,0.1
		c0.1-0.1,0.1-0.2,0.2-0.3C320.1,80.1,320.2,80.1,320.4,80.1z M320.3,82.5c-0.2,0-0.3-0.1-0.5-0.2c-0.1-0.1-0.2-0.2-0.2-0.4
		c0-0.1,0-0.3,0.2-0.4c0.1-0.1,0.3-0.1,0.6-0.2c0.2,0,0.4-0.1,0.6-0.1l0.1,0v0.3c0,0.2,0,0.4,0,0.5c0,0.1-0.1,0.3-0.3,0.3
		C320.7,82.4,320.5,82.5,320.3,82.5z M320.9,81.5c-0.1,0-0.3,0.1-0.4,0.1c-0.3,0.1-0.4,0.1-0.5,0.1c-0.1,0.1-0.1,0.2-0.1,0.2
		c0,0.1,0,0.2,0.1,0.2c0.2,0.2,0.5,0.1,0.7,0c0.1-0.1,0.2-0.1,0.2-0.2C320.9,81.9,320.9,81.8,320.9,81.5L320.9,81.5z"/>
</g>
<g>
	<rect x="322.9" y="78.4" class="st3" width="1" height="4.5"/>
	<path class="st3" d="M324,83h-1.2v-4.8h1.2V83z M323,82.8h0.7v-4.3H323V82.8z"/>
</g>
<g>
	<rect x="322.9" y="78.4" class="st3" width="1" height="4.5"/>
	<path class="st3" d="M324,83h-1.2v-4.8h1.2V83z M323,82.8h0.7v-4.3H323V82.8z"/>
</g>
<g>
	<path class="st3" d="M324.4,79.6h1l0.9,2.3l0.8-2.3h1l-1.3,3.2l-0.2,0.6c-0.1,0.2-0.2,0.3-0.2,0.4c-0.1,0.1-0.2,0.2-0.3,0.2
		c-0.1,0.1-0.2,0.1-0.4,0.1c-0.1,0-0.3,0.1-0.5,0.1c-0.2,0-0.4,0-0.5-0.1l-0.1-0.7c0.1,0,0.3,0,0.4,0c0.2,0,0.4-0.1,0.5-0.2
		c0.1-0.1,0.2-0.3,0.2-0.5L324.4,79.6z"/>
	<path class="st3" d="M325.2,84.4c-0.2,0-0.4,0-0.6-0.1l-0.1,0l-0.1-0.9l0.1,0c0.4,0.1,0.7,0,0.8-0.1c0.1-0.1,0.2-0.2,0.2-0.4
		l-1.4-3.4h1.3l0.8,2.1l0.8-2.1h1.2l-1.5,3.9c-0.1,0.2-0.2,0.4-0.3,0.5c-0.1,0.1-0.2,0.2-0.3,0.3c-0.1,0.1-0.2,0.1-0.4,0.2
		C325.6,84.4,325.4,84.4,325.2,84.4z M324.8,84.1c0.3,0.1,0.6,0,0.9,0c0.1,0,0.2-0.1,0.3-0.1c0.1-0.1,0.2-0.1,0.2-0.2
		c0.1-0.1,0.1-0.2,0.2-0.4l1.4-3.6h-0.7l-0.9,2.6l-0.9-2.6h-0.8l1.3,3.2l0,0c-0.1,0.2-0.2,0.4-0.3,0.5c-0.2,0.2-0.4,0.2-0.8,0.2
		L324.8,84.1z"/>
</g>
<g>
	<path class="st3" d="M324.4,79.6h1l0.9,2.3l0.8-2.3h1l-1.3,3.2l-0.2,0.6c-0.1,0.2-0.2,0.3-0.2,0.4c-0.1,0.1-0.2,0.2-0.3,0.2
		c-0.1,0.1-0.2,0.1-0.4,0.1c-0.1,0-0.3,0.1-0.5,0.1c-0.2,0-0.4,0-0.5-0.1l-0.1-0.7c0.1,0,0.3,0,0.4,0c0.2,0,0.4-0.1,0.5-0.2
		c0.1-0.1,0.2-0.3,0.2-0.5L324.4,79.6z"/>
	<path class="st3" d="M325.2,84.4c-0.2,0-0.4,0-0.6-0.1l-0.1,0l-0.1-0.9l0.1,0c0.4,0.1,0.7,0,0.8-0.1c0.1-0.1,0.2-0.2,0.2-0.4
		l-1.4-3.4h1.3l0.8,2.1l0.8-2.1h1.2l-1.5,3.9c-0.1,0.2-0.2,0.4-0.3,0.5c-0.1,0.1-0.2,0.2-0.3,0.3c-0.1,0.1-0.2,0.1-0.4,0.2
		C325.6,84.4,325.4,84.4,325.2,84.4z M324.8,84.1c0.3,0.1,0.6,0,0.9,0c0.1,0,0.2-0.1,0.3-0.1c0.1-0.1,0.2-0.1,0.2-0.2
		c0.1-0.1,0.1-0.2,0.2-0.4l1.4-3.6h-0.7l-0.9,2.6l-0.9-2.6h-0.8l1.3,3.2l0,0c-0.1,0.2-0.2,0.4-0.3,0.5c-0.2,0.2-0.4,0.2-0.8,0.2
		L324.8,84.1z"/>
</g>
<rect x="287.6" y="63.4" class="st0" width="40.3" height="4.3"/>
<g>
	<g>
		<g>
			<path class="st0" d="M87,100c0,1.2-0.4,2.1-1.2,2.8c-0.8,0.7-2,1-3.4,1c-1,0-1.9-0.1-2.6-0.4c-0.7-0.3-1.4-0.8-2-1.4l0.7-0.7
				c0.3,0.3,0.6,0.6,0.9,0.8c0.3,0.2,0.6,0.4,0.9,0.5c0.3,0.1,0.6,0.2,1,0.3c0.3,0.1,0.7,0.1,1.1,0.1c1.1,0,2-0.2,2.6-0.8
				c0.6-0.5,1-1.2,1-2.1c0-0.9-0.3-1.5-0.8-2c-0.1-0.1-0.3-0.2-0.4-0.3c-0.1-0.1-0.2-0.1-0.4-0.2c-0.1-0.1-0.3-0.1-0.5-0.2
				c-0.2,0-0.4-0.1-0.7-0.1l-1.6-0.3c-1-0.2-1.9-0.5-2.5-1c-0.7-0.6-1.1-1.5-1.1-2.6c0-1.2,0.4-2.1,1.2-2.8c0.8-0.7,1.8-1,3.2-1
				c0.9,0,1.6,0.1,2.2,0.4c0.6,0.2,1.2,0.6,1.8,1.1l-0.7,0.7c-0.2-0.2-0.4-0.4-0.6-0.5c-0.2-0.2-0.5-0.3-0.7-0.4
				c-0.3-0.1-0.6-0.2-0.9-0.3c-0.3-0.1-0.7-0.1-1.1-0.1c-1,0-1.8,0.3-2.4,0.8c-0.6,0.5-0.8,1.2-0.8,2.1c0,0.8,0.2,1.4,0.7,1.8
				c0.2,0.2,0.6,0.4,0.9,0.5c0.4,0.2,0.7,0.3,1.1,0.3l1.5,0.2c0.6,0.1,1.2,0.2,1.5,0.3c0.4,0.1,0.7,0.3,1,0.6
				c0.4,0.3,0.7,0.7,0.9,1.2C86.9,98.9,87,99.4,87,100"/>
			<path class="st0" d="M82.3,104.1c-1.1,0-2-0.2-2.7-0.5c-0.7-0.3-1.4-0.8-2.1-1.4l-0.2-0.2l1.1-1.1l0.2,0.2
				c0.3,0.3,0.6,0.6,0.9,0.8c0.3,0.2,0.6,0.4,0.9,0.5c0.3,0.1,0.6,0.2,0.9,0.3c0.3,0,0.7,0.1,1.1,0.1c1.1,0,1.9-0.2,2.5-0.7
				c0.6-0.5,0.9-1.1,0.9-1.9c0-0.8-0.2-1.4-0.7-1.8c-0.1-0.1-0.2-0.2-0.3-0.2c-0.1-0.1-0.2-0.1-0.4-0.2c-0.1-0.1-0.3-0.1-0.5-0.1
				c-0.2,0-0.4-0.1-0.7-0.1l-1.6-0.3c-1.1-0.2-2-0.5-2.6-1.1c-0.8-0.7-1.2-1.6-1.2-2.7c0-1.2,0.4-2.2,1.2-2.9
				c0.8-0.7,1.9-1.1,3.3-1.1c0.9,0,1.7,0.1,2.3,0.4c0.6,0.2,1.2,0.6,1.9,1.2l0.2,0.2l-1,1l-0.2-0.1c-0.2-0.2-0.4-0.4-0.6-0.5
				c-0.2-0.1-0.4-0.3-0.7-0.4c-0.2-0.1-0.5-0.2-0.8-0.2c-0.3-0.1-0.7-0.1-1.1-0.1c-1,0-1.7,0.2-2.2,0.7c-0.5,0.5-0.8,1.1-0.8,1.9
				c0,0.7,0.2,1.3,0.6,1.6c0.2,0.2,0.5,0.4,0.9,0.5c0.4,0.1,0.7,0.2,1.1,0.3l1.5,0.2c0.7,0.1,1.2,0.2,1.6,0.4c0.4,0.1,0.7,0.4,1,0.6
				c0.4,0.3,0.7,0.7,0.9,1.2c0.2,0.5,0.3,1,0.3,1.6c0,1.2-0.4,2.3-1.3,3C85,103.7,83.8,104.1,82.3,104.1z M78,102
				c0.6,0.5,1.2,0.9,1.8,1.2c0.7,0.3,1.5,0.4,2.5,0.4c1.4,0,2.5-0.3,3.3-1c0.8-0.6,1.2-1.5,1.2-2.6c0-0.5-0.1-1-0.3-1.4
				c-0.2-0.4-0.5-0.8-0.8-1.1c-0.3-0.2-0.6-0.4-0.9-0.5c-0.3-0.1-0.8-0.2-1.5-0.3l-1.5-0.2c-0.4-0.1-0.8-0.2-1.2-0.3
				c-0.4-0.2-0.7-0.4-1-0.6c-0.5-0.4-0.8-1.1-0.8-2c0-1,0.3-1.7,0.9-2.3c0.6-0.5,1.5-0.8,2.5-0.8c0.4,0,0.8,0,1.1,0.1
				c0.3,0.1,0.7,0.2,0.9,0.3c0.3,0.1,0.5,0.3,0.8,0.4c0.2,0.1,0.3,0.3,0.5,0.4l0.4-0.4c-0.5-0.4-1-0.7-1.6-0.9
				c-0.6-0.2-1.3-0.3-2.1-0.3c-1.3,0-2.3,0.3-3,1c-0.7,0.6-1.1,1.5-1.1,2.6c0,1,0.3,1.8,1,2.4c0.6,0.5,1.4,0.8,2.4,1l1.6,0.3
				c0.3,0,0.5,0.1,0.7,0.1c0.2,0,0.4,0.1,0.5,0.2c0.2,0.1,0.3,0.1,0.4,0.2c0.1,0.1,0.3,0.2,0.4,0.3c0.6,0.5,0.8,1.2,0.8,2.1
				c0,1-0.4,1.7-1,2.3c-0.7,0.5-1.6,0.8-2.8,0.8c-0.4,0-0.8,0-1.2-0.1c-0.4-0.1-0.7-0.2-1-0.3c-0.3-0.1-0.7-0.3-1-0.5
				c-0.3-0.2-0.5-0.4-0.8-0.6L78,102z"/>
		</g>
	</g>
	<g>
		<polygon class="st0" points="92.3,89.8 93.3,89.8 93.3,102.8 100.7,102.8 100.7,103.7 92.3,103.7 		"/>
		<path class="st0" d="M100.9,103.9H92V89.6h1.5v12.9h7.4V103.9z M92.5,103.5h8V103h-7.4V90.1h-0.6V103.5z"/>
	</g>
	<g>
		<polygon class="st0" points="105.4,89.8 113.8,89.8 113.8,90.8 106.4,90.8 106.4,96.3 112.7,96.3 112.7,97.2 106.4,97.2 
			106.4,102.8 113.8,102.8 113.8,103.7 105.4,103.7 		"/>
		<path class="st0" d="M114,103.9h-8.9V89.6h8.9V91h-7.4v5h6.3v1.4h-6.3v5.1h7.4V103.9z M105.6,103.5h8V103h-7.4v-6h6.3v-0.5h-6.3
			v-5.9h7.4v-0.5h-8V103.5z"/>
	</g>
	<g>
		<polygon class="st0" points="119,89.8 127.4,89.8 127.4,90.8 120,90.8 120,96.3 126.3,96.3 126.3,97.2 120,97.2 120,102.8 
			127.4,102.8 127.4,103.7 119,103.7 		"/>
		<path class="st0" d="M127.6,103.9h-8.9V89.6h8.9V91h-7.4v5h6.3v1.4h-6.3v5.1h7.4V103.9z M119.2,103.5h8V103h-7.4v-6h6.3v-0.5h-6.3
			v-5.9h7.4v-0.5h-8V103.5z"/>
	</g>
	<g>
		<g>
			<path class="st0" d="M140.8,93.8c0-1-0.3-1.8-0.9-2.3c-0.6-0.5-1.4-0.7-2.4-0.7h-3.9v6.1h3.9c1,0,1.7-0.2,2.4-0.8
				C140.5,95.6,140.8,94.9,140.8,93.8 M141.9,93.8c0,0.6-0.1,1.2-0.3,1.7c-0.2,0.5-0.5,0.9-0.9,1.3c-0.4,0.3-0.8,0.6-1.3,0.8
				c-0.5,0.2-1.1,0.3-1.7,0.3h-4v5.9h-1.1V89.8h5.1c0.6,0,1.2,0.1,1.7,0.3c0.5,0.2,1,0.4,1.3,0.8c0.4,0.3,0.7,0.8,0.9,1.3
				C141.8,92.6,141.9,93.2,141.9,93.8"/>
			<path class="st0" d="M133.9,103.9h-1.5V89.6h5.3c0.6,0,1.2,0.1,1.7,0.3c0.5,0.2,1,0.5,1.4,0.8c0.4,0.4,0.7,0.8,0.9,1.3
				c0.2,0.5,0.3,1.1,0.3,1.8c0,0.7-0.1,1.3-0.3,1.8c-0.2,0.5-0.5,1-0.9,1.3c-0.4,0.4-0.9,0.6-1.4,0.8c-0.5,0.2-1.1,0.3-1.7,0.3h-3.8
				V103.9z M132.8,103.5h0.6v-5.9h4.3c0.6,0,1.1-0.1,1.6-0.3c0.5-0.2,0.9-0.4,1.2-0.7c0.3-0.3,0.6-0.7,0.8-1.2
				c0.2-0.5,0.3-1,0.3-1.6c0-0.6-0.1-1.1-0.3-1.6c-0.2-0.5-0.5-0.9-0.8-1.2c-0.3-0.3-0.8-0.6-1.2-0.7c-0.5-0.2-1-0.3-1.6-0.3h-4.9
				V103.5z M137.6,97.1h-4.1v-6.6h4.1c1,0,1.9,0.3,2.5,0.8c0.7,0.5,1,1.4,1,2.5c0,1.1-0.3,1.9-1,2.5
				C139.4,96.9,138.6,97.1,137.6,97.1z M133.9,96.7h3.7c0.9,0,1.6-0.2,2.2-0.7c0.5-0.5,0.8-1.2,0.8-2.1c0-1-0.3-1.7-0.8-2.1
				c-0.6-0.5-1.3-0.7-2.2-0.7h-3.7V96.7z"/>
		</g>
	</g>
	<g>
		<polygon class="st0" points="153.8,89.8 162.2,89.8 162.2,90.8 154.8,90.8 154.8,96.3 161.1,96.3 161.1,97.2 154.8,97.2 
			154.8,102.8 162.2,102.8 162.2,103.7 153.8,103.7 		"/>
		<path class="st0" d="M162.4,103.9h-8.9V89.6h8.9V91h-7.4v5h6.3v1.4h-6.3v5.1h7.4V103.9z M154,103.5h8V103h-7.4v-6h6.3v-0.5h-6.3
			v-5.9h7.4v-0.5h-8V103.5z"/>
	</g>
	<g>
		<g>
			<path class="st0" d="M175.5,100c0,1.2-0.4,2.1-1.2,2.8c-0.8,0.7-2,1-3.4,1c-1,0-1.9-0.1-2.6-0.4c-0.7-0.3-1.4-0.8-2-1.4l0.7-0.7
				c0.3,0.3,0.6,0.6,0.9,0.8c0.3,0.2,0.6,0.4,0.9,0.5c0.3,0.1,0.6,0.2,1,0.3c0.3,0.1,0.7,0.1,1.1,0.1c1.1,0,2-0.2,2.6-0.8
				c0.6-0.5,1-1.2,1-2.1c0-0.9-0.3-1.5-0.8-2c-0.1-0.1-0.3-0.2-0.4-0.3c-0.1-0.1-0.2-0.1-0.4-0.2c-0.1-0.1-0.3-0.1-0.5-0.2
				c-0.2,0-0.4-0.1-0.7-0.1l-1.6-0.3c-1-0.2-1.9-0.5-2.5-1c-0.7-0.6-1.1-1.5-1.1-2.6c0-1.2,0.4-2.1,1.2-2.8c0.8-0.7,1.8-1,3.2-1
				c0.9,0,1.6,0.1,2.2,0.4c0.6,0.2,1.2,0.6,1.8,1.1l-0.7,0.7c-0.2-0.2-0.4-0.4-0.6-0.5c-0.2-0.2-0.5-0.3-0.7-0.4
				c-0.3-0.1-0.6-0.2-0.9-0.3c-0.3-0.1-0.7-0.1-1.1-0.1c-1,0-1.8,0.3-2.4,0.8c-0.6,0.5-0.8,1.2-0.8,2.1c0,0.8,0.2,1.4,0.7,1.8
				c0.2,0.2,0.6,0.4,0.9,0.5c0.4,0.2,0.8,0.3,1.1,0.3l1.5,0.2c0.6,0.1,1.2,0.2,1.5,0.3c0.4,0.1,0.7,0.3,1,0.6
				c0.4,0.3,0.7,0.7,0.9,1.2C175.4,98.9,175.5,99.4,175.5,100"/>
			<path class="st0" d="M170.9,104.1c-1.1,0-2-0.2-2.7-0.5c-0.7-0.3-1.4-0.8-2.1-1.4l-0.2-0.2l1.1-1.1l0.2,0.2
				c0.3,0.3,0.6,0.6,0.9,0.8c0.3,0.2,0.6,0.4,0.9,0.5c0.3,0.1,0.6,0.2,0.9,0.3c0.3,0,0.7,0.1,1.1,0.1c1,0,1.9-0.2,2.5-0.7
				c0.6-0.5,0.9-1.1,0.9-1.9c0-0.8-0.2-1.4-0.7-1.8c-0.1-0.1-0.2-0.2-0.3-0.2c-0.1-0.1-0.2-0.1-0.4-0.2c-0.1-0.1-0.3-0.1-0.5-0.1
				c-0.2,0-0.4-0.1-0.7-0.1l-1.6-0.3c-1.1-0.2-2-0.5-2.6-1.1c-0.8-0.7-1.2-1.6-1.2-2.7c0-1.2,0.4-2.2,1.2-2.9
				c0.8-0.7,1.9-1.1,3.3-1.1c0.9,0,1.7,0.1,2.3,0.4c0.6,0.2,1.2,0.6,1.9,1.2l0.2,0.2l-1,1l-0.2-0.1c-0.2-0.2-0.4-0.4-0.6-0.5
				c-0.2-0.1-0.4-0.3-0.7-0.4c-0.2-0.1-0.5-0.2-0.8-0.2c-0.3-0.1-0.7-0.1-1.1-0.1c-1,0-1.7,0.2-2.2,0.7c-0.5,0.5-0.8,1.1-0.8,1.9
				c0,0.7,0.2,1.3,0.6,1.6c0.2,0.2,0.5,0.4,0.9,0.5c0.4,0.1,0.7,0.2,1.1,0.3l1.5,0.2c0.7,0.1,1.2,0.2,1.6,0.4c0.4,0.1,0.7,0.4,1,0.6
				c0.4,0.3,0.7,0.7,0.9,1.2c0.2,0.5,0.3,1,0.3,1.6c0,1.2-0.4,2.3-1.3,3C173.6,103.7,172.4,104.1,170.9,104.1z M166.6,102
				c0.6,0.5,1.2,0.9,1.8,1.2c0.7,0.3,1.5,0.4,2.5,0.4c1.4,0,2.5-0.3,3.3-1c0.8-0.6,1.2-1.5,1.2-2.6c0-0.5-0.1-1-0.3-1.4
				c-0.2-0.4-0.5-0.8-0.8-1.1c-0.3-0.2-0.6-0.4-0.9-0.5c-0.3-0.1-0.8-0.2-1.5-0.3l-1.5-0.2c-0.4-0.1-0.8-0.2-1.2-0.3
				c-0.4-0.2-0.7-0.4-1-0.6c-0.5-0.4-0.8-1.1-0.8-2c0-1,0.3-1.7,0.9-2.3c0.6-0.5,1.5-0.8,2.5-0.8c0.4,0,0.8,0,1.1,0.1
				c0.3,0.1,0.7,0.2,0.9,0.3c0.3,0.1,0.5,0.3,0.8,0.4c0.2,0.1,0.3,0.3,0.5,0.4l0.4-0.4c-0.5-0.4-1-0.7-1.6-0.9
				c-0.6-0.2-1.3-0.3-2.1-0.3c-1.3,0-2.3,0.3-3,1c-0.7,0.6-1.1,1.5-1.1,2.6c0,1,0.3,1.8,1,2.4c0.6,0.5,1.4,0.8,2.4,1l1.6,0.3
				c0.3,0,0.5,0.1,0.7,0.1c0.2,0,0.4,0.1,0.5,0.2c0.2,0.1,0.3,0.1,0.4,0.2c0.1,0.1,0.3,0.2,0.4,0.3c0.6,0.5,0.8,1.2,0.8,2.1
				c0,1-0.4,1.7-1,2.3c-0.7,0.5-1.6,0.8-2.8,0.8c-0.4,0-0.8,0-1.2-0.1c-0.4-0.1-0.7-0.2-1-0.3c-0.3-0.1-0.7-0.3-1-0.5
				c-0.2-0.2-0.5-0.4-0.8-0.6L166.6,102z"/>
		</g>
		<g>
			<path class="st0" d="M188.8,100c0,1.2-0.4,2.1-1.2,2.8c-0.8,0.7-2,1-3.4,1c-1,0-1.9-0.1-2.6-0.4c-0.7-0.3-1.4-0.8-2-1.4l0.7-0.7
				c0.3,0.3,0.6,0.6,0.9,0.8c0.3,0.2,0.6,0.4,0.9,0.5c0.3,0.1,0.6,0.2,1,0.3c0.3,0.1,0.7,0.1,1.1,0.1c1.1,0,2-0.2,2.6-0.8
				c0.6-0.5,1-1.2,1-2.1c0-0.9-0.3-1.5-0.8-2c-0.1-0.1-0.3-0.2-0.4-0.3c-0.1-0.1-0.2-0.1-0.4-0.2c-0.1-0.1-0.3-0.1-0.5-0.2
				c-0.2,0-0.4-0.1-0.7-0.1l-1.6-0.3c-1-0.2-1.9-0.5-2.5-1c-0.7-0.6-1.1-1.5-1.1-2.6c0-1.2,0.4-2.1,1.2-2.8c0.8-0.7,1.8-1,3.2-1
				c0.9,0,1.6,0.1,2.2,0.4c0.6,0.2,1.2,0.6,1.8,1.1l-0.7,0.7c-0.2-0.2-0.4-0.4-0.6-0.5c-0.2-0.2-0.5-0.3-0.7-0.4
				c-0.3-0.1-0.6-0.2-0.9-0.3c-0.3-0.1-0.7-0.1-1.1-0.1c-1,0-1.8,0.3-2.4,0.8c-0.6,0.5-0.8,1.2-0.8,2.1c0,0.8,0.2,1.4,0.7,1.8
				c0.2,0.2,0.6,0.4,0.9,0.5c0.4,0.2,0.7,0.3,1.1,0.3l1.5,0.2c0.6,0.1,1.2,0.2,1.5,0.3c0.4,0.1,0.7,0.3,1,0.6
				c0.4,0.3,0.7,0.7,0.9,1.2C188.7,98.9,188.8,99.4,188.8,100"/>
			<path class="st0" d="M184.1,104.1c-1.1,0-2-0.2-2.7-0.5c-0.7-0.3-1.4-0.8-2.1-1.4l-0.2-0.2l1.1-1.1l0.2,0.2
				c0.3,0.3,0.6,0.6,0.9,0.8c0.3,0.2,0.6,0.4,0.9,0.5c0.3,0.1,0.6,0.2,0.9,0.3c0.3,0,0.7,0.1,1.1,0.1c1,0,1.9-0.2,2.5-0.7
				c0.6-0.5,0.9-1.1,0.9-1.9c0-0.8-0.2-1.4-0.7-1.8c-0.1-0.1-0.2-0.2-0.3-0.2c-0.1-0.1-0.2-0.1-0.4-0.2c-0.1-0.1-0.3-0.1-0.5-0.1
				c-0.2,0-0.4-0.1-0.7-0.1l-1.6-0.3c-1.1-0.2-2-0.5-2.6-1.1c-0.8-0.6-1.2-1.6-1.2-2.7c0-1.2,0.4-2.2,1.2-2.9
				c0.8-0.7,1.9-1.1,3.3-1.1c0.9,0,1.7,0.1,2.3,0.4c0.6,0.2,1.2,0.6,1.9,1.2l0.2,0.2l-1,1l-0.2-0.1c-0.2-0.2-0.4-0.4-0.6-0.5
				c-0.2-0.1-0.4-0.3-0.7-0.4c-0.2-0.1-0.5-0.2-0.8-0.2c-0.3-0.1-0.7-0.1-1.1-0.1c-1,0-1.7,0.2-2.2,0.7c-0.5,0.5-0.8,1.1-0.8,1.9
				c0,0.7,0.2,1.3,0.6,1.6c0.2,0.2,0.5,0.4,0.9,0.5c0.4,0.1,0.7,0.2,1.1,0.3l1.5,0.2c0.7,0.1,1.2,0.2,1.6,0.4c0.4,0.1,0.7,0.4,1,0.6
				c0.4,0.3,0.7,0.7,0.9,1.2c0.2,0.5,0.3,1,0.3,1.6c0,1.2-0.4,2.3-1.3,3C186.8,103.7,185.6,104.1,184.1,104.1z M179.8,102
				c0.6,0.5,1.2,0.9,1.8,1.2c0.7,0.3,1.5,0.4,2.5,0.4c1.4,0,2.5-0.3,3.3-1c0.8-0.6,1.2-1.5,1.2-2.6c0-0.5-0.1-1-0.3-1.4
				c-0.2-0.4-0.5-0.8-0.8-1.1c-0.3-0.2-0.6-0.4-0.9-0.5c-0.3-0.1-0.8-0.2-1.5-0.3l-1.5-0.2c-0.4-0.1-0.8-0.2-1.2-0.3
				c-0.4-0.2-0.7-0.4-1-0.6c-0.5-0.4-0.8-1.1-0.8-2c0-1,0.3-1.7,0.9-2.3c0.6-0.5,1.5-0.8,2.5-0.8c0.4,0,0.8,0,1.1,0.1
				c0.3,0.1,0.7,0.2,0.9,0.3c0.3,0.1,0.5,0.3,0.8,0.4c0.2,0.1,0.3,0.3,0.5,0.4l0.4-0.4c-0.5-0.4-1-0.7-1.6-0.9
				c-0.6-0.2-1.3-0.3-2.1-0.3c-1.3,0-2.3,0.3-3,1c-0.7,0.6-1.1,1.5-1.1,2.6c0,1,0.3,1.8,1,2.4c0.6,0.5,1.4,0.8,2.4,1l1.6,0.3
				c0.3,0,0.5,0.1,0.7,0.1c0.2,0,0.4,0.1,0.5,0.2c0.2,0.1,0.3,0.1,0.4,0.2c0.1,0.1,0.3,0.2,0.4,0.3c0.6,0.5,0.8,1.2,0.8,2.1
				c0,1-0.4,1.7-1,2.3c-0.7,0.5-1.6,0.8-2.8,0.8c-0.4,0-0.8,0-1.2-0.1c-0.4-0.1-0.7-0.2-1-0.3c-0.3-0.1-0.7-0.3-1-0.5
				c-0.3-0.2-0.5-0.4-0.8-0.6L179.8,102z"/>
		</g>
	</g>
	<g>
		<polygon class="st0" points="194.1,89.8 202.5,89.8 202.5,90.8 195.1,90.8 195.1,96.3 201.4,96.3 201.4,97.2 195.1,97.2 
			195.1,102.8 202.5,102.8 202.5,103.7 194.1,103.7 		"/>
		<path class="st0" d="M202.7,103.9h-8.9V89.6h8.9V91h-7.4v5h6.3v1.4h-6.3v5.1h7.4V103.9z M194.3,103.5h8V103h-7.4v-6h6.3v-0.5h-6.3
			v-5.9h7.4v-0.5h-8V103.5z"/>
	</g>
	<g>
		<polygon class="st0" points="208.7,91.7 208.7,103.7 207.7,103.7 207.7,89.8 208.7,89.8 216.7,101.9 216.7,89.8 217.8,89.8 
			217.8,103.7 216.7,103.7 		"/>
		<path class="st0" d="M218,103.9h-1.4L209,92.4v11.5h-1.5V89.6h1.4l7.7,11.5V89.6h1.5V103.9z M216.9,103.5h0.7V90.1H217v12.6
			l-8.4-12.6h-0.7v13.4h0.6V90.9L216.9,103.5z"/>
	</g>
	<g>
		<polygon class="st0" points="227.7,103.7 226.6,103.7 226.6,90.8 222.5,90.8 222.5,89.8 231.8,89.8 231.8,90.8 227.7,90.8 		"/>
		<path class="st0" d="M227.9,103.9h-1.5V91h-4.1v-1.4h9.8V91h-4.2V103.9z M226.8,103.5h0.6V90.5h4.2v-0.5h-8.9v0.5h4.1V103.5z"/>
	</g>
	<g>
		<rect x="236.5" y="89.8" class="st0" width="1.1" height="13.9"/>
		<path class="st0" d="M237.8,103.9h-1.5V89.6h1.5V103.9z M236.7,103.5h0.6V90.1h-0.6V103.5z"/>
	</g>
	<g>
		<path class="st0" d="M244.6,99.4h5.8l-2.9-8.2L244.6,99.4z M250.8,100.3h-6.5l-1.2,3.4h-1.1l5.1-13.9h0.9l5.1,13.9H252
			L250.8,100.3z"/>
		<path class="st0" d="M253.4,103.9h-1.6l-1.2-3.4h-6.2l-1.2,3.4h-1.6l5.3-14.3h1.2l0.1,0.1L253.4,103.9z M252.1,103.5h0.7
			l-4.9-13.4h-0.6l-4.9,13.4h0.6l1.2-3.4h6.8L252.1,103.5z M250.7,99.6h-6.5l3.2-9.1L250.7,99.6z M244.9,99.2h5.2l-2.6-7.3
			L244.9,99.2z"/>
	</g>
	<g>
		<polygon class="st0" points="257.5,89.8 258.5,89.8 258.5,102.8 265.9,102.8 265.9,103.7 257.5,103.7 		"/>
		<path class="st0" d="M266.1,103.9h-8.9V89.6h1.5v12.9h7.4V103.9z M257.7,103.5h8V103h-7.4V90.1h-0.6V103.5z"/>
	</g>
	<g>
		<g>
			<path class="st0" d="M278.7,100c0,1.2-0.4,2.1-1.2,2.8c-0.8,0.7-2,1-3.4,1c-1,0-1.9-0.1-2.6-0.4c-0.7-0.3-1.4-0.8-2-1.4l0.7-0.7
				c0.3,0.3,0.6,0.6,0.9,0.8c0.3,0.2,0.6,0.4,0.9,0.5c0.3,0.1,0.6,0.2,1,0.3c0.3,0.1,0.7,0.1,1.1,0.1c1.1,0,2-0.2,2.6-0.8
				c0.6-0.5,1-1.2,1-2.1c0-0.9-0.3-1.5-0.8-2c-0.1-0.1-0.3-0.2-0.4-0.3c-0.1-0.1-0.2-0.1-0.4-0.2c-0.1-0.1-0.3-0.1-0.5-0.2
				c-0.2,0-0.4-0.1-0.7-0.1l-1.6-0.3c-1-0.2-1.9-0.5-2.5-1c-0.7-0.6-1.1-1.5-1.1-2.6c0-1.2,0.4-2.1,1.2-2.8c0.8-0.7,1.8-1,3.2-1
				c0.9,0,1.6,0.1,2.2,0.4c0.6,0.2,1.2,0.6,1.8,1.1l-0.7,0.7c-0.2-0.2-0.4-0.4-0.6-0.5c-0.2-0.2-0.5-0.3-0.7-0.4
				c-0.3-0.1-0.6-0.2-0.9-0.3c-0.3-0.1-0.7-0.1-1.1-0.1c-1,0-1.8,0.3-2.4,0.8c-0.6,0.5-0.8,1.2-0.8,2.1c0,0.8,0.2,1.4,0.7,1.8
				c0.2,0.2,0.6,0.4,0.9,0.5c0.4,0.2,0.7,0.3,1.1,0.3l1.5,0.2c0.6,0.1,1.2,0.2,1.5,0.3c0.4,0.1,0.7,0.3,1,0.6
				c0.4,0.3,0.7,0.7,0.9,1.2C278.6,98.9,278.7,99.4,278.7,100"/>
			<path class="st0" d="M274.1,104.1c-1.1,0-2-0.2-2.7-0.5c-0.7-0.3-1.4-0.8-2.1-1.4l-0.2-0.2l1.1-1.1l0.2,0.2
				c0.3,0.3,0.6,0.6,0.9,0.8c0.3,0.2,0.6,0.4,0.9,0.5c0.3,0.1,0.6,0.2,0.9,0.3c0.3,0,0.7,0.1,1.1,0.1c1,0,1.9-0.2,2.5-0.7
				c0.6-0.5,0.9-1.1,0.9-1.9c0-0.8-0.2-1.4-0.7-1.8c-0.1-0.1-0.2-0.2-0.3-0.2c-0.1-0.1-0.2-0.1-0.4-0.2c-0.1-0.1-0.3-0.1-0.5-0.1
				c-0.2,0-0.4-0.1-0.7-0.1l-1.6-0.3c-1.1-0.2-2-0.5-2.6-1.1c-0.8-0.7-1.2-1.6-1.2-2.7c0-1.2,0.4-2.2,1.2-2.9
				c0.8-0.7,1.9-1.1,3.3-1.1c0.9,0,1.7,0.1,2.3,0.4c0.6,0.2,1.2,0.6,1.9,1.2l0.2,0.2l-1,1l-0.2-0.1c-0.2-0.2-0.4-0.4-0.6-0.5
				c-0.2-0.1-0.4-0.3-0.7-0.4c-0.2-0.1-0.5-0.2-0.8-0.2c-0.3-0.1-0.7-0.1-1.1-0.1c-1,0-1.7,0.2-2.2,0.7c-0.5,0.5-0.8,1.1-0.8,1.9
				c0,0.7,0.2,1.3,0.6,1.6c0.2,0.2,0.5,0.4,0.9,0.5c0.4,0.1,0.7,0.2,1.1,0.3l1.5,0.2c0.7,0.1,1.2,0.2,1.6,0.4c0.4,0.1,0.7,0.4,1,0.6
				c0.4,0.3,0.7,0.7,0.9,1.2c0.2,0.5,0.3,1,0.3,1.6c0,1.2-0.4,2.3-1.3,3C276.8,103.7,275.6,104.1,274.1,104.1z M269.8,102
				c0.6,0.5,1.2,0.9,1.8,1.2c0.7,0.3,1.5,0.4,2.5,0.4c1.4,0,2.5-0.3,3.3-1c0.8-0.6,1.2-1.5,1.2-2.6c0-0.5-0.1-1-0.3-1.4
				c-0.2-0.4-0.5-0.8-0.8-1.1c-0.3-0.2-0.6-0.4-0.9-0.5c-0.3-0.1-0.8-0.2-1.5-0.3l-1.5-0.2c-0.4-0.1-0.8-0.2-1.2-0.3
				c-0.4-0.2-0.7-0.4-1-0.6c-0.5-0.4-0.8-1.1-0.8-2c0-1,0.3-1.7,0.9-2.3c0.6-0.5,1.5-0.8,2.5-0.8c0.4,0,0.8,0,1.1,0.1
				c0.3,0.1,0.7,0.2,0.9,0.3c0.3,0.1,0.5,0.3,0.8,0.4c0.2,0.1,0.3,0.3,0.5,0.4l0.4-0.4c-0.5-0.4-1-0.7-1.6-0.9
				c-0.6-0.2-1.3-0.3-2.1-0.3c-1.3,0-2.3,0.3-3,1c-0.7,0.6-1.1,1.5-1.1,2.6c0,1,0.3,1.8,1,2.4c0.6,0.5,1.4,0.8,2.4,1l1.6,0.3
				c0.3,0,0.5,0.1,0.7,0.1c0.2,0,0.4,0.1,0.5,0.2c0.2,0.1,0.3,0.1,0.4,0.2c0.1,0.1,0.3,0.2,0.4,0.3c0.6,0.5,0.8,1.2,0.8,2.1
				c0,1-0.4,1.7-1,2.3c-0.7,0.5-1.6,0.8-2.8,0.8c-0.4,0-0.8,0-1.2-0.1c-0.4-0.1-0.7-0.2-1-0.3c-0.3-0.1-0.7-0.3-1-0.5
				c-0.3-0.2-0.5-0.4-0.8-0.6L269.8,102z"/>
		</g>
	</g>
</g>
</svg>
