<svg id="Layer_1" data-name="Layer 1" xmlns="http://www.w3.org/2000/svg" viewBox="0 0 386 109.33"><defs><style>.cls-1{fill:#024663;}.cls-2{fill:#ec1c24;}.cls-3{fill:#7b9452;}.cls-4{fill:#fff;}</style></defs><title>LOGO</title><path class="cls-1" d="M66.82,29.64c5.34-.76,5.55,0,5.4.58a.64.64,0,0,1-.69.47s-7.69-1.5-31.9,19.11c3.62,5.08,6.38,13,4,14.32s-5.12-6-9.61-7.29-4.49-1.65-15.87,8.3c-10.13,7.67-6-2.43-1.48-5.94s10.47-9.34,10.91-11.5-3.83-4.49-2.92-11.27a5.4,5.4,0,0,1,.5-1.66c1.54-3.58,2.25.49,4.56,3.68,2.56,3.53,4.35,4.22,4.35,4.22s18.38-11,32.73-13"/><path class="cls-1" d="M24.14,47.49S-8.69,27,10.18,12.23C24.31,4,27.46,23.65,27.46,23.65s7.43-14.49,16.43-8.49c10,6.64-3.48,18.26-9.32,22.34-.74-1,7.42-8.86,3.63-11.8-3.62-2.81-6.53,1-10.63,5.85-2.2,2.58-4.56-12.91-11.2-9.21-5.85,3.25-.56,13.61,6.78,22.55,1.48,1.85,1,2.6,1,2.6"/><path class="cls-2" d="M24.23,47.41S-6,23.39,11.75,11.8c14.4-7.22,17.34,13,17.34,13S36.51,9.08,44.94,15.7c9.32,7.32-4,18.47-10,22.14-.66-1.09,8.31-10,4.79-13.23-3.36-3.06-9.08,2.62-11.59,6.13-1.95,2.75-3.82-12.89-10.58-9.67-6,2.84-.73,14.25,5.88,23.68,1.32,2,.8,2.66.8,2.66"/><path class="cls-1" d="M375.5,10.37a2.37,2.37,0,0,1,1.14.3,2.13,2.13,0,0,1,.86.85,2.29,2.29,0,0,1,0,2.3,2.11,2.11,0,0,1-.85.85,2.38,2.38,0,0,1-1.15.3,2.31,2.31,0,0,1-1.14-.3,2.2,2.2,0,0,1-.86-.85,2.38,2.38,0,0,1-.3-1.15,2.28,2.28,0,0,1,.31-1.15,2.07,2.07,0,0,1,.86-.85,2.36,2.36,0,0,1,1.13-.3m0,.38a1.89,1.89,0,0,0-.94.25,1.7,1.7,0,0,0-.72.71,1.88,1.88,0,0,0-.26,1,1.9,1.9,0,0,0,.25.95,1.78,1.78,0,0,0,.72.72,1.9,1.9,0,0,0,.95.25,1.94,1.94,0,0,0,1-.25,1.76,1.76,0,0,0,.71-.72,1.91,1.91,0,0,0,.26-.95,2,2,0,0,0-.26-1,1.7,1.7,0,0,0-.72-.71,1.93,1.93,0,0,0-.95-.25m-1,3.2V11.47h.86a2.27,2.27,0,0,1,.63.07.53.53,0,0,1,.31.24.6.6,0,0,1,.12.36.61.61,0,0,1-.2.47.76.76,0,0,1-.51.23.54.54,0,0,1,.21.13,3.19,3.19,0,0,1,.37.49l.3.49h-.48l-.23-.39a2.08,2.08,0,0,0-.42-.58.5.5,0,0,0-.33-.09h-.23V14Zm.4-1.4h.49a.83.83,0,0,0,.49-.1.35.35,0,0,0,.07-.47.4.4,0,0,0-.18-.13,1.27,1.27,0,0,0-.41,0h-.46Z"/><path class="cls-1" d="M243.58,10.52H76.12v4.25H243.58ZM119.47,56.11c0,4.39,3.86,4.39,3.86,4.39h13V55.24c-1.93,0-4.13-2.37-4.13-2.37V33.38a4.78,4.78,0,0,0-4.65-5.09h-50V34c4.83,0,4.3,3.42,4.3,3.42V59.89H96.39V36.19a2.48,2.48,0,0,1,2.54-2.37c2.2,0,2.2,2.37,2.2,2.37V60H114.2V36.37a2.36,2.36,0,0,1,2.55-2.72,2.53,2.53,0,0,1,2.72,2.72ZM260.05,10.49H248.92v15h11.14ZM76.12,67.61h95.37V63.36H76.12ZM311,60H332c5.26,0,4.65-4.74,4.65-4.74V47.51H324.3v3s-.17,2.37-2.37,2.37a2.2,2.2,0,0,1-2.28-2.11V45.23h17V35c0-7.28-6.5-6.67-6.5-6.67H315c-8,0-7.11,5.8-7.11,5.8V56.55C307.89,60.33,311,60,311,60m11-24.76c1.5,0,2.72,1,2.72,2.11s-1.22,2.11-2.72,2.11-2.72-.94-2.72-2.11,1.22-2.11,2.72-2.11M293.57,59.8h12.48V53.92a3.6,3.6,0,0,1-2.63-3.16V10.49H290.34V56.64c0,3.16,3.23,3.16,3.23,3.16M244,34.65c0-6.76-6.84-6.5-6.84-6.5H209.69v7.69l3.07,2V60.07H225.4V37.69s-.53-3.08,2.54-3.08a2.77,2.77,0,0,1,2.9,3V57.7A2.17,2.17,0,0,0,233,60h13.52V54.09c-2.72,0-2.55-1.92-2.55-1.92Zm41.43-1.88h1.66V27.68h-4.56V21.19c0-3.43,1.84-2.81,1.84-2.81h3.51V10.21H275.77c-7.11,0-6.49,6.41-6.49,6.41V27.5h-3.95v5.89c4.12,0,3.95,2.8,3.95,2.8v37h13.16v-37c0-3.59,3-3.33,3-3.33m77.75,9.48,10.27-13.87H360.2l-3.33,4.74-3.43-4.83H341.15l9.22,13.43-19,25.45h13.87L357,51.2l11,15.8H381Zm-188-9.92V56.55s-.17,3.69,4.39,3.69h12.64V67s0,2-2.63,2A2.41,2.41,0,0,1,187,66.65V64.19H174.88v7.28a3.65,3.65,0,0,0,3.69,3.25H200s4,1,4-5.7V37.33L206,35.14V28H179.45s-4.22-.53-4.22,4.3m12.29,19.13V37.25a2.54,2.54,0,0,1,2.81-2.64A2.78,2.78,0,0,1,193.05,37v14.4a3,3,0,0,1-3,2.54,2.37,2.37,0,0,1-2.55-2.46m72.72-23.34h-11.5V57.34c0,2.73,2.81,2.46,2.81,2.46h13.78V53h-5.09Zm-91.1,23.69V33.12s.18-5.09-5.09-5.09H143.78a4.71,4.71,0,0,0-5.18,5.09v5.27h12.81s-.35-2.81,2.29-2.81a2.57,2.57,0,0,1,2.8,2.81v2.8H141.67s-3.51-.08-3.51,4.3V56s-.53,4.21,5,4.21h29.05V54.53s-3.07.27-3.07-2.72m-12.72,1.5h-5v-5.8h5Zm50.22,14.3H264V63.36H206.64ZM370.51,10.52H306.93v4.25h63.58Z"/><path class="cls-3" d="M300.11,90c-4.91.9-9.83.94-14.74-1.68V72.83c4.91,2.62,9.83,2.58,14.74,1.69Z"/><path class="cls-4" d="M314.54,86.59c-4.91.86-9.82,2.62-14.74,3.49V74.57c4.92-.86,9.83-2.62,14.74-3.48Z"/><path class="cls-2" d="M329,88.33c-4.91-2.62-9.83-2.58-14.74-1.68V71.15c4.91-.9,9.83-.94,14.74,1.68Z"/><polygon class="cls-1" points="287.24 82.93 287.24 78.38 288.73 78.38 289.63 81.48 290.51 78.38 292.01 78.38 292.01 82.93 291.08 82.93 291.08 79.35 290.1 82.93 289.14 82.93 288.16 79.35 288.16 82.93 287.24 82.93"/><path class="cls-1" d="M292.12,83H291V80.19L290.19,83h-1.14l-.77-2.85V83h-1.15V78.27h1.69l.81,2.8.8-2.8h1.69Zm-.92-.22h.69V78.49H290.6l-1,3.4-1-3.4h-1.3v4.33h.7V79.35l.22,0,1,3.5H290l1-3.5.22,0Z"/><polygon class="cls-1" points="287.24 82.93 287.24 78.38 288.73 78.38 289.63 81.48 290.51 78.38 292.01 78.38 292.01 82.93 291.08 82.93 291.08 79.35 290.1 82.93 289.14 82.93 288.16 79.35 288.16 82.93 287.24 82.93"/><path class="cls-1" d="M292.12,83H291V80.19L290.19,83h-1.14l-.77-2.85V83h-1.15V78.27h1.69l.81,2.8.8-2.8h1.69Zm-.92-.22h.69V78.49H290.6l-1,3.4-1-3.4h-1.3v4.33h.7V79.35l.22,0,1,3.5H290l1-3.5.22,0Z"/><path class="cls-1" d="M293.7,80.64l-.86-.15a1.24,1.24,0,0,1,.5-.7,2,2,0,0,1,1.05-.23,2.5,2.5,0,0,1,.95.14.94.94,0,0,1,.44.35,1.74,1.74,0,0,1,.12.78v1a3.29,3.29,0,0,0,.05.64,1.64,1.64,0,0,0,.17.44h-.94l-.09-.26a.43.43,0,0,1,0-.1,1.93,1.93,0,0,1-.52.32,1.67,1.67,0,0,1-.59.11,1.32,1.32,0,0,1-.88-.27.91.91,0,0,1-.32-.7.84.84,0,0,1,.15-.5.89.89,0,0,1,.4-.34,4.23,4.23,0,0,1,.76-.2,7,7,0,0,0,.92-.21v-.09a.43.43,0,0,0-.14-.36.87.87,0,0,0-.51-.11.73.73,0,0,0-.39.09.72.72,0,0,0-.23.33m1.27.7c-.12,0-.32.08-.58.14a1.76,1.76,0,0,0-.51.15.35.35,0,0,0-.19.31.4.4,0,0,0,.15.31.56.56,0,0,0,.38.14.92.92,0,0,0,.49-.16.55.55,0,0,0,.22-.29,1.38,1.38,0,0,0,0-.43Z"/><path class="cls-1" d="M293.94,83.11a1.41,1.41,0,0,1-.95-.3,1,1,0,0,1-.36-.78,1,1,0,0,1,.16-.56,1,1,0,0,1,.46-.38,3.51,3.51,0,0,1,.78-.21c.37-.07.65-.13.83-.18h0a.34.34,0,0,0-.1-.27s-.16-.08-.44-.08a.62.62,0,0,0-.33.07.58.58,0,0,0-.18.27l0,.08-1.08-.18,0-.12a1.39,1.39,0,0,1,.55-.77,2.13,2.13,0,0,1,1.11-.24,2.84,2.84,0,0,1,1,.14,1.09,1.09,0,0,1,.48.4,1.66,1.66,0,0,1,.15.84l0,1a2.82,2.82,0,0,0,.05.61,1.38,1.38,0,0,0,.16.42l.09.16h-1.2l0-.06-.08-.22a2.25,2.25,0,0,1-.42.24A1.9,1.9,0,0,1,293.94,83.11Zm.38-3a.92.92,0,0,1,.58.13.55.55,0,0,1,.18.45v.16l-.07,0a6,6,0,0,1-.94.22,3,3,0,0,0-.73.2.75.75,0,0,0-.48.73.75.75,0,0,0,.28.61,1.21,1.21,0,0,0,.8.25,1.72,1.72,0,0,0,.55-.1,1.57,1.57,0,0,0,.48-.31l.12-.11.06.16,0,.11a1.89,1.89,0,0,0,.06.18h.68a1.39,1.39,0,0,1-.1-.31,2.83,2.83,0,0,1-.05-.66v-1a1.48,1.48,0,0,0-.11-.72.79.79,0,0,0-.39-.31,2.25,2.25,0,0,0-.9-.13,1.89,1.89,0,0,0-1,.21,1.08,1.08,0,0,0-.41.52l.64.11a.64.64,0,0,1,.24-.29A.86.86,0,0,1,294.32,80.11Zm-.1,2.39a.63.63,0,0,1-.45-.17.49.49,0,0,1-.19-.39.48.48,0,0,1,.23-.41,2,2,0,0,1,.56-.16l.57-.14.14,0v.32a1.7,1.7,0,0,1,0,.47.73.73,0,0,1-.27.34A1,1,0,0,1,294.22,82.5Zm.64-1-.45.1a1.8,1.8,0,0,0-.47.13.24.24,0,0,0-.13.22.3.3,0,0,0,.11.23.42.42,0,0,0,.3.1.72.72,0,0,0,.42-.13.47.47,0,0,0,.18-.23,1.09,1.09,0,0,0,0-.4Z"/><path class="cls-1" d="M293.7,80.64l-.86-.15a1.24,1.24,0,0,1,.5-.7,2,2,0,0,1,1.05-.23,2.5,2.5,0,0,1,.95.14.94.94,0,0,1,.44.35,1.74,1.74,0,0,1,.12.78v1a3.29,3.29,0,0,0,.05.64,1.64,1.64,0,0,0,.17.44h-.94l-.09-.26a.43.43,0,0,1,0-.1,1.93,1.93,0,0,1-.52.32,1.67,1.67,0,0,1-.59.11,1.32,1.32,0,0,1-.88-.27.91.91,0,0,1-.32-.7.84.84,0,0,1,.15-.5.89.89,0,0,1,.4-.34,4.23,4.23,0,0,1,.76-.2,7,7,0,0,0,.92-.21v-.09a.43.43,0,0,0-.14-.36.87.87,0,0,0-.51-.11.73.73,0,0,0-.39.09A.72.72,0,0,0,293.7,80.64Zm1.27.7c-.12,0-.32.08-.58.14a1.76,1.76,0,0,0-.51.15.35.35,0,0,0-.19.31.4.4,0,0,0,.15.31.56.56,0,0,0,.38.14.92.92,0,0,0,.49-.16.55.55,0,0,0,.22-.29,1.38,1.38,0,0,0,0-.43Z"/><path class="cls-1" d="M293.94,83.11a1.41,1.41,0,0,1-.95-.3,1,1,0,0,1-.36-.78,1,1,0,0,1,.16-.56,1,1,0,0,1,.46-.38,3.51,3.51,0,0,1,.78-.21c.37-.07.65-.13.83-.18h0a.34.34,0,0,0-.1-.27s-.16-.08-.44-.08a.62.62,0,0,0-.33.07.58.58,0,0,0-.18.27l0,.08-1.08-.18,0-.12a1.39,1.39,0,0,1,.55-.77,2.13,2.13,0,0,1,1.11-.24,2.84,2.84,0,0,1,1,.14,1.09,1.09,0,0,1,.48.4,1.66,1.66,0,0,1,.15.84l0,1a2.82,2.82,0,0,0,.05.61,1.38,1.38,0,0,0,.16.42l.09.16h-1.2l0-.06-.08-.22a2.25,2.25,0,0,1-.42.24A1.9,1.9,0,0,1,293.94,83.11Zm.38-3a.92.92,0,0,1,.58.13.55.55,0,0,1,.18.45v.16l-.07,0a6,6,0,0,1-.94.22,3,3,0,0,0-.73.2.75.75,0,0,0-.48.73.75.75,0,0,0,.28.61,1.21,1.21,0,0,0,.8.25,1.72,1.72,0,0,0,.55-.1,1.57,1.57,0,0,0,.48-.31l.12-.11.06.16,0,.11a1.89,1.89,0,0,0,.06.18h.68a1.39,1.39,0,0,1-.1-.31,2.83,2.83,0,0,1-.05-.66v-1a1.48,1.48,0,0,0-.11-.72.79.79,0,0,0-.39-.31,2.25,2.25,0,0,0-.9-.13,1.89,1.89,0,0,0-1,.21,1.08,1.08,0,0,0-.41.52l.64.11a.64.64,0,0,1,.24-.29A.86.86,0,0,1,294.32,80.11Zm-.1,2.39a.63.63,0,0,1-.45-.17.49.49,0,0,1-.19-.39.48.48,0,0,1,.23-.41,2,2,0,0,1,.56-.16l.57-.14.14,0v.32a1.7,1.7,0,0,1,0,.47.73.73,0,0,1-.27.34A1,1,0,0,1,294.22,82.5Zm.64-1-.45.1a1.8,1.8,0,0,0-.47.13.24.24,0,0,0-.13.22.3.3,0,0,0,.11.23.42.42,0,0,0,.3.1.72.72,0,0,0,.42-.13.47.47,0,0,0,.18-.23,1.09,1.09,0,0,0,0-.4Z"/><path class="cls-1" d="M300.12,82.93h-.88v-.49a1.38,1.38,0,0,1-.52.42,1.46,1.46,0,0,1-.6.14,1.42,1.42,0,0,1-1.06-.46,1.77,1.77,0,0,1-.44-1.27,1.74,1.74,0,0,1,.43-1.27,1.43,1.43,0,0,1,1.08-.44,1.38,1.38,0,0,1,1,.46V78.38h.95Zm-2.52-1.72a1.47,1.47,0,0,0,.15.76.76.76,0,0,0,1.2.09,1.14,1.14,0,0,0,.22-.77,1.22,1.22,0,0,0-.22-.82.74.74,0,0,0-.57-.25.75.75,0,0,0-.56.25,1.07,1.07,0,0,0-.22.74"/><path class="cls-1" d="M298.12,83.11a1.53,1.53,0,0,1-1.14-.49,2.19,2.19,0,0,1,0-2.7,1.55,1.55,0,0,1,1.16-.47,1.47,1.47,0,0,1,.93.31V78.27h1.17V83h-1.11v-.31a1.36,1.36,0,0,1-.35.24A1.69,1.69,0,0,1,298.12,83.11Zm0-3.44a1.33,1.33,0,0,0-1,.4,2,2,0,0,0,0,2.4,1.3,1.3,0,0,0,1,.42,1.2,1.2,0,0,0,.55-.13,1.26,1.26,0,0,0,.48-.39l.2-.25v.7H300V78.5h-.73v1.8l-.19-.2A1.28,1.28,0,0,0,298.13,79.67Zm.26,2.76a.84.84,0,0,1-.73-.4,1.44,1.44,0,0,1-.18-.82,1.14,1.14,0,0,1,.26-.81.84.84,0,0,1,.64-.29.85.85,0,0,1,.66.29,1.37,1.37,0,0,1,.25.89,1.22,1.22,0,0,1-.26.84A.83.83,0,0,1,298.39,82.43Zm0-2.09a.59.59,0,0,0-.47.21,1,1,0,0,0-.2.66,1.34,1.34,0,0,0,.14.7.6.6,0,0,0,.54.29.59.59,0,0,0,.47-.22,1,1,0,0,0,.2-.69,1.1,1.1,0,0,0-.19-.74A.64.64,0,0,0,298.38,80.34Z"/><path class="cls-1" d="M300.12,82.93h-.88v-.49a1.38,1.38,0,0,1-.52.42,1.46,1.46,0,0,1-.6.14,1.42,1.42,0,0,1-1.06-.46,1.77,1.77,0,0,1-.44-1.27,1.74,1.74,0,0,1,.43-1.27,1.43,1.43,0,0,1,1.08-.44,1.38,1.38,0,0,1,1,.46V78.38h.95Zm-2.52-1.72a1.47,1.47,0,0,0,.15.76.76.76,0,0,0,1.2.09,1.14,1.14,0,0,0,.22-.77,1.22,1.22,0,0,0-.22-.82.74.74,0,0,0-.57-.25.75.75,0,0,0-.56.25A1.07,1.07,0,0,0,297.6,81.21Z"/><path class="cls-1" d="M298.12,83.11a1.53,1.53,0,0,1-1.14-.49,2.19,2.19,0,0,1,0-2.7,1.55,1.55,0,0,1,1.16-.47,1.47,1.47,0,0,1,.93.31V78.27h1.17V83h-1.11v-.31a1.36,1.36,0,0,1-.35.24A1.69,1.69,0,0,1,298.12,83.11Zm0-3.44a1.33,1.33,0,0,0-1,.4,2,2,0,0,0,0,2.4,1.3,1.3,0,0,0,1,.42,1.2,1.2,0,0,0,.55-.13,1.26,1.26,0,0,0,.48-.39l.2-.25v.7H300V78.5h-.73v1.8l-.19-.2A1.28,1.28,0,0,0,298.13,79.67Zm.26,2.76a.84.84,0,0,1-.73-.4,1.44,1.44,0,0,1-.18-.82,1.14,1.14,0,0,1,.26-.81.84.84,0,0,1,.64-.29.85.85,0,0,1,.66.29,1.37,1.37,0,0,1,.25.89,1.22,1.22,0,0,1-.26.84A.83.83,0,0,1,298.39,82.43Zm0-2.09a.59.59,0,0,0-.47.21,1,1,0,0,0-.2.66,1.34,1.34,0,0,0,.14.7.6.6,0,0,0,.54.29.59.59,0,0,0,.47-.22,1,1,0,0,0,.2-.69,1.1,1.1,0,0,0-.19-.74A.64.64,0,0,0,298.38,80.34Z"/><path class="cls-1" d="M303.12,81.88l.95.14a1.41,1.41,0,0,1-.58.73,1.76,1.76,0,0,1-1,.25,1.67,1.67,0,0,1-1.38-.56,1.77,1.77,0,0,1-.36-1.14,1.74,1.74,0,0,1,.47-1.28,1.59,1.59,0,0,1,1.18-.46,1.67,1.67,0,0,1,1.26.48,2,2,0,0,1,.44,1.49h-2.37a.82.82,0,0,0,.22.6.74.74,0,0,0,.55.22.68.68,0,0,0,.38-.11.72.72,0,0,0,.22-.36m.06-.88a.85.85,0,0,0-.21-.58.7.7,0,0,0-.5-.2.69.69,0,0,0-.51.21.81.81,0,0,0-.2.57Z"/><path class="cls-1" d="M302.51,83.11a1.78,1.78,0,0,1-1.47-.6,1.92,1.92,0,0,1-.38-1.21,1.85,1.85,0,0,1,.5-1.36,1.7,1.7,0,0,1,1.26-.49,1.76,1.76,0,0,1,1.34.52,2.09,2.09,0,0,1,.47,1.56v.11h-2.36a.68.68,0,0,0,.18.41.63.63,0,0,0,.47.19.54.54,0,0,0,.31-.09.62.62,0,0,0,.19-.3l0-.1,1.18.18,0,.13a1.56,1.56,0,0,1-.63.79A1.93,1.93,0,0,1,302.51,83.11Zm-.09-3.44a1.53,1.53,0,0,0-1.1.43,1.62,1.62,0,0,0-.44,1.2,1.69,1.69,0,0,0,.34,1.07,1.54,1.54,0,0,0,1.29.52,1.69,1.69,0,0,0,.92-.23,1.35,1.35,0,0,0,.48-.55L303.2,82a.67.67,0,0,1-.68.46.85.85,0,0,1-.63-.25,1,1,0,0,1-.26-.68v-.11H304a1.94,1.94,0,0,0-.41-1.3A1.56,1.56,0,0,0,302.42,79.67Zm.87,1.44h-1.64V81a.88.88,0,0,1,.23-.65.81.81,0,0,1,.59-.24.78.78,0,0,1,.57.23.9.9,0,0,1,.25.65Zm-1.41-.23h1.18a.64.64,0,0,0-.17-.38.58.58,0,0,0-.42-.16.57.57,0,0,0-.43.17A.63.63,0,0,0,301.88,80.88Z"/><path class="cls-1" d="M303.12,81.88l.95.14a1.41,1.41,0,0,1-.58.73,1.76,1.76,0,0,1-1,.25,1.67,1.67,0,0,1-1.38-.56,1.77,1.77,0,0,1-.36-1.14,1.74,1.74,0,0,1,.47-1.28,1.59,1.59,0,0,1,1.18-.46,1.67,1.67,0,0,1,1.26.48,2,2,0,0,1,.44,1.49h-2.37a.82.82,0,0,0,.22.6.74.74,0,0,0,.55.22.68.68,0,0,0,.38-.11A.72.72,0,0,0,303.12,81.88Zm.06-.88a.85.85,0,0,0-.21-.58.7.7,0,0,0-.5-.2.69.69,0,0,0-.51.21.81.81,0,0,0-.2.57Z"/><path class="cls-1" d="M302.51,83.11a1.78,1.78,0,0,1-1.47-.6,1.92,1.92,0,0,1-.38-1.21,1.85,1.85,0,0,1,.5-1.36,1.7,1.7,0,0,1,1.26-.49,1.76,1.76,0,0,1,1.34.52,2.09,2.09,0,0,1,.47,1.56v.11h-2.36a.68.68,0,0,0,.18.41.63.63,0,0,0,.47.19.54.54,0,0,0,.31-.09.62.62,0,0,0,.19-.3l0-.1,1.18.18,0,.13a1.56,1.56,0,0,1-.63.79A1.93,1.93,0,0,1,302.51,83.11Zm-.09-3.44a1.53,1.53,0,0,0-1.1.43,1.62,1.62,0,0,0-.44,1.2,1.69,1.69,0,0,0,.34,1.07,1.54,1.54,0,0,0,1.29.52,1.69,1.69,0,0,0,.92-.23,1.35,1.35,0,0,0,.48-.55L303.2,82a.67.67,0,0,1-.68.46.85.85,0,0,1-.63-.25,1,1,0,0,1-.26-.68v-.11H304a1.94,1.94,0,0,0-.41-1.3A1.56,1.56,0,0,0,302.42,79.67Zm.87,1.44h-1.64V81a.88.88,0,0,1,.23-.65.81.81,0,0,1,.59-.24.78.78,0,0,1,.57.23.9.9,0,0,1,.25.65Zm-1.41-.23h1.18a.64.64,0,0,0-.17-.38.58.58,0,0,0-.42-.16.57.57,0,0,0-.43.17A.63.63,0,0,0,301.88,80.88Z"/><path class="cls-1" d="M306.81,78.38h.95v.81h-.95Zm0,1.26h.95v3.29h-.95Z"/><path class="cls-1" d="M307.87,83H306.7V79.52h1.17Zm-.95-.23h.73V79.75h-.73Zm.95-3.51H306.7v-1h1.17Zm-.95-.22h.73V78.5h-.73Z"/><path class="cls-1" d="M306.81,78.38h.95v.81h-.95Zm0,1.26h.95v3.29h-.95Z"/><path class="cls-1" d="M307.87,83H306.7V79.52h1.17Zm-.95-.23h.73V79.75h-.73Zm.95-3.51H306.7v-1h1.17Zm-.95-.22h.73V78.5h-.73Z"/><path class="cls-1" d="M312,82.93H311V81.25a2.38,2.38,0,0,0-.06-.69.56.56,0,0,0-.2-.25.58.58,0,0,0-.33-.09.84.84,0,0,0-.44.13.63.63,0,0,0-.27.33,2.54,2.54,0,0,0-.07.75v1.5h-.95V79.64h.88v.48a1.49,1.49,0,0,1,1.18-.56,1.57,1.57,0,0,1,.58.1,1,1,0,0,1,.39.27.85.85,0,0,1,.18.37,2.14,2.14,0,0,1,.06.58Z"/><path class="cls-1" d="M312.1,83h-1.18V81.25a2.42,2.42,0,0,0-.05-.65.32.32,0,0,0-.15-.19.66.66,0,0,0-.65,0,.52.52,0,0,0-.22.27,2.46,2.46,0,0,0-.07.72V83h-1.17V79.52h1.1v.32a1.59,1.59,0,0,1,1.07-.39,1.56,1.56,0,0,1,.62.11,1,1,0,0,1,.43.3,1.07,1.07,0,0,1,.21.41,2.44,2.44,0,0,1,.06.61Zm-1-.22h.72V80.88a2.09,2.09,0,0,0-.05-.56.81.81,0,0,0-.16-.32.85.85,0,0,0-.35-.23,1.29,1.29,0,0,0-.53-.1,1.35,1.35,0,0,0-1.09.52l-.2.24v-.68h-.66v3.07h.73V81.43a2.44,2.44,0,0,1,.08-.79.69.69,0,0,1,.31-.39,1,1,0,0,1,.5-.14.71.71,0,0,1,.39.11.62.62,0,0,1,.24.29,2.21,2.21,0,0,1,.07.74Z"/><path class="cls-1" d="M312,82.93H311V81.25a2.38,2.38,0,0,0-.06-.69.56.56,0,0,0-.2-.25.58.58,0,0,0-.33-.09.84.84,0,0,0-.44.13.63.63,0,0,0-.27.33,2.54,2.54,0,0,0-.07.75v1.5h-.95V79.64h.88v.48a1.49,1.49,0,0,1,1.18-.56,1.57,1.57,0,0,1,.58.1,1,1,0,0,1,.39.27.85.85,0,0,1,.18.37,2.14,2.14,0,0,1,.06.58Z"/><path class="cls-1" d="M312.1,83h-1.18V81.25a2.42,2.42,0,0,0-.05-.65.32.32,0,0,0-.15-.19.66.66,0,0,0-.65,0,.52.52,0,0,0-.22.27,2.46,2.46,0,0,0-.07.72V83h-1.17V79.52h1.1v.32a1.59,1.59,0,0,1,1.07-.39,1.56,1.56,0,0,1,.62.11,1,1,0,0,1,.43.3,1.07,1.07,0,0,1,.21.41,2.44,2.44,0,0,1,.06.61Zm-1-.22h.72V80.88a2.09,2.09,0,0,0-.05-.56.81.81,0,0,0-.16-.32.85.85,0,0,0-.35-.23,1.29,1.29,0,0,0-.53-.1,1.35,1.35,0,0,0-1.09.52l-.2.24v-.68h-.66v3.07h.73V81.43a2.44,2.44,0,0,1,.08-.79.69.69,0,0,1,.31-.39,1,1,0,0,1,.5-.14.71.71,0,0,1,.39.11.62.62,0,0,1,.24.29,2.21,2.21,0,0,1,.07.74Z"/><rect class="cls-1" x="314.84" y="78.38" width="1" height="4.54"/><path class="cls-1" d="M316,83h-1.22V78.27H316Zm-1-.22h.77V78.5H315Z"/><rect class="cls-1" x="314.84" y="78.38" width="1" height="4.54"/><path class="cls-1" d="M316,83h-1.22V78.27H316Zm-1-.22h.77V78.5H315Z"/><path class="cls-1" d="M318.42,79.64v.69h-.65v1.33a3.16,3.16,0,0,0,0,.46.19.19,0,0,0,.09.11.25.25,0,0,0,.16,0,1.31,1.31,0,0,0,.38-.09l.08.68a2,2,0,0,1-.75.13,1.34,1.34,0,0,1-.46-.08.63.63,0,0,1-.3-.2.69.69,0,0,1-.13-.34,2.73,2.73,0,0,1,0-.61V80.33h-.43v-.69h.43V79l.95-.51v1.17Z"/><path class="cls-1" d="M317.75,83.11a1.54,1.54,0,0,1-.5-.08.84.84,0,0,1-.35-.24.87.87,0,0,1-.16-.39,4.16,4.16,0,0,1,0-.63V80.45h-.43v-.93h.43v-.61l1.18-.63v1.24h.64v.93h-.64v1.21a2.75,2.75,0,0,0,0,.43s0,0,0,0,.09.06.44-.06l.14,0,.1.9-.08,0A2,2,0,0,1,317.75,83.11Zm-1.25-2.89h.44v1.55a3.54,3.54,0,0,0,0,.59.59.59,0,0,0,.11.29.64.64,0,0,0,.25.17,1.32,1.32,0,0,0,.42.07,1.81,1.81,0,0,0,.63-.1l-.06-.45a.61.61,0,0,1-.51,0,.43.43,0,0,1-.13-.17,3,3,0,0,1,0-.5V80.22h.65v-.47h-.65V78.66l-.72.39v.7h-.44Z"/><path class="cls-1" d="M318.42,79.64v.69h-.65v1.33a3.16,3.16,0,0,0,0,.46.19.19,0,0,0,.09.11.25.25,0,0,0,.16,0,1.31,1.31,0,0,0,.38-.09l.08.68a2,2,0,0,1-.75.13,1.34,1.34,0,0,1-.46-.08.63.63,0,0,1-.3-.2.69.69,0,0,1-.13-.34,2.73,2.73,0,0,1,0-.61V80.33h-.43v-.69h.43V79l.95-.51v1.17Z"/><path class="cls-1" d="M317.75,83.11a1.54,1.54,0,0,1-.5-.08.84.84,0,0,1-.35-.24.87.87,0,0,1-.16-.39,4.16,4.16,0,0,1,0-.63V80.45h-.43v-.93h.43v-.61l1.18-.63v1.24h.64v.93h-.64v1.21a2.75,2.75,0,0,0,0,.43s0,0,0,0,.09.06.44-.06l.14,0,.1.9-.08,0A2,2,0,0,1,317.75,83.11Zm-1.25-2.89h.44v1.55a3.54,3.54,0,0,0,0,.59.59.59,0,0,0,.11.29.64.64,0,0,0,.25.17,1.32,1.32,0,0,0,.42.07,1.81,1.81,0,0,0,.63-.1l-.06-.45a.61.61,0,0,1-.51,0,.43.43,0,0,1-.13-.17,3,3,0,0,1,0-.5V80.22h.65v-.47h-.65V78.66l-.72.39v.7h-.44Z"/><path class="cls-1" d="M319.79,80.64l-.86-.15a1.2,1.2,0,0,1,.5-.7,2,2,0,0,1,1.05-.23,2.5,2.5,0,0,1,.95.14,1,1,0,0,1,.44.35,1.74,1.74,0,0,1,.12.78v1a3.46,3.46,0,0,0,0,.64,2.07,2.07,0,0,0,.17.44h-.93a1.52,1.52,0,0,1-.09-.26.64.64,0,0,0,0-.1,1.66,1.66,0,0,1-.52.32A1.63,1.63,0,0,1,320,83a1.29,1.29,0,0,1-.87-.27.91.91,0,0,1-.32-.7.84.84,0,0,1,.15-.5.89.89,0,0,1,.4-.34,4.09,4.09,0,0,1,.75-.2,6.61,6.61,0,0,0,.92-.21v-.09a.43.43,0,0,0-.13-.36.87.87,0,0,0-.51-.11.7.7,0,0,0-.39.09.65.65,0,0,0-.23.33m1.26.7c-.12,0-.31.08-.57.14a2,2,0,0,0-.52.15.36.36,0,0,0-.18.31.4.4,0,0,0,.15.31.53.53,0,0,0,.37.14.87.87,0,0,0,.49-.16.58.58,0,0,0,.23-.29,2,2,0,0,0,0-.43Z"/><path class="cls-1" d="M320,83.11a1.4,1.4,0,0,1-.94-.3,1,1,0,0,1-.36-.78,1,1,0,0,1,.16-.56,1,1,0,0,1,.46-.38,3.36,3.36,0,0,1,.78-.21c.44-.08.68-.14.82-.18h0a.34.34,0,0,0-.09-.27.77.77,0,0,0-.44-.08.66.66,0,0,0-.34.07.58.58,0,0,0-.18.27l0,.08-1.07-.18,0-.12a1.34,1.34,0,0,1,.55-.77,2.1,2.1,0,0,1,1.11-.24,2.74,2.74,0,0,1,1,.14,1.12,1.12,0,0,1,.49.4,1.69,1.69,0,0,1,.14.84v1a3,3,0,0,0,0,.61,1.7,1.7,0,0,0,.16.42l.09.16h-1.2l0-.07-.07-.21a2,2,0,0,1-.43.24A1.9,1.9,0,0,1,320,83.11Zm.39-3a.94.94,0,0,1,.58.13.55.55,0,0,1,.18.45v.16l-.08,0a5.49,5.49,0,0,1-.94.22,3.08,3.08,0,0,0-.72.2.75.75,0,0,0-.36.29.74.74,0,0,0-.13.44.75.75,0,0,0,.28.61,1.21,1.21,0,0,0,.8.25,1.68,1.68,0,0,0,.55-.1,1.75,1.75,0,0,0,.49-.31l.12-.11.06.16,0,.11.06.18H322a2.22,2.22,0,0,1-.1-.31,3.45,3.45,0,0,1-.05-.66l0-1a1.61,1.61,0,0,0-.11-.72.84.84,0,0,0-.39-.31,2.28,2.28,0,0,0-.9-.13,1.87,1.87,0,0,0-1,.21,1.08,1.08,0,0,0-.41.52l.64.11a.69.69,0,0,1,.23-.29A.89.89,0,0,1,320.41,80.11Zm-.11,2.39a.64.64,0,0,1-.45-.17.51.51,0,0,1-.18-.39.48.48,0,0,1,.23-.41,1.93,1.93,0,0,1,.56-.16l.56-.14.15,0v.32a1.6,1.6,0,0,1-.05.47.65.65,0,0,1-.26.34A1,1,0,0,1,320.3,82.5Zm.64-1-.44.1a2,2,0,0,0-.48.13.26.26,0,0,0-.13.22.33.33,0,0,0,.11.23.63.63,0,0,0,.73,0,.54.54,0,0,0,.18-.23,1.86,1.86,0,0,0,0-.4Z"/><path class="cls-1" d="M319.79,80.64l-.86-.15a1.2,1.2,0,0,1,.5-.7,2,2,0,0,1,1.05-.23,2.5,2.5,0,0,1,.95.14,1,1,0,0,1,.44.35,1.74,1.74,0,0,1,.12.78v1a3.46,3.46,0,0,0,0,.64,2.07,2.07,0,0,0,.17.44h-.93a1.52,1.52,0,0,1-.09-.26.64.64,0,0,0,0-.1,1.66,1.66,0,0,1-.52.32A1.63,1.63,0,0,1,320,83a1.29,1.29,0,0,1-.87-.27.91.91,0,0,1-.32-.7.84.84,0,0,1,.15-.5.89.89,0,0,1,.4-.34,4.09,4.09,0,0,1,.75-.2,6.61,6.61,0,0,0,.92-.21v-.09a.43.43,0,0,0-.13-.36.87.87,0,0,0-.51-.11.7.7,0,0,0-.39.09A.65.65,0,0,0,319.79,80.64Zm1.26.7c-.12,0-.31.08-.57.14a2,2,0,0,0-.52.15.36.36,0,0,0-.18.31.4.4,0,0,0,.15.31.53.53,0,0,0,.37.14.87.87,0,0,0,.49-.16.58.58,0,0,0,.23-.29,2,2,0,0,0,0-.43Z"/><path class="cls-1" d="M320,83.11a1.4,1.4,0,0,1-.94-.3,1,1,0,0,1-.36-.78,1,1,0,0,1,.16-.56,1,1,0,0,1,.46-.38,3.36,3.36,0,0,1,.78-.21c.44-.08.68-.14.82-.18h0a.34.34,0,0,0-.09-.27.77.77,0,0,0-.44-.08.66.66,0,0,0-.34.07.58.58,0,0,0-.18.27l0,.08-1.07-.18,0-.12a1.34,1.34,0,0,1,.55-.77,2.1,2.1,0,0,1,1.11-.24,2.74,2.74,0,0,1,1,.14,1.12,1.12,0,0,1,.49.4,1.69,1.69,0,0,1,.14.84v1a3,3,0,0,0,0,.61,1.7,1.7,0,0,0,.16.42l.09.16h-1.2l0-.07-.07-.21a2,2,0,0,1-.43.24A1.9,1.9,0,0,1,320,83.11Zm.39-3a.94.94,0,0,1,.58.13.55.55,0,0,1,.18.45v.16l-.08,0a5.49,5.49,0,0,1-.94.22,3.08,3.08,0,0,0-.72.2.75.75,0,0,0-.36.29.74.74,0,0,0-.13.44.75.75,0,0,0,.28.61,1.21,1.21,0,0,0,.8.25,1.68,1.68,0,0,0,.55-.1,1.75,1.75,0,0,0,.49-.31l.12-.11.06.16,0,.11.06.18H322a2.22,2.22,0,0,1-.1-.31,3.45,3.45,0,0,1-.05-.66l0-1a1.61,1.61,0,0,0-.11-.72.84.84,0,0,0-.39-.31,2.28,2.28,0,0,0-.9-.13,1.87,1.87,0,0,0-1,.21,1.08,1.08,0,0,0-.41.52l.64.11a.69.69,0,0,1,.23-.29A.89.89,0,0,1,320.41,80.11Zm-.11,2.39a.64.64,0,0,1-.45-.17.51.51,0,0,1-.18-.39.48.48,0,0,1,.23-.41,1.93,1.93,0,0,1,.56-.16l.56-.14.15,0v.32a1.6,1.6,0,0,1-.05.47.65.65,0,0,1-.26.34A1,1,0,0,1,320.3,82.5Zm.64-1-.44.1a2,2,0,0,0-.48.13.26.26,0,0,0-.13.22.33.33,0,0,0,.11.23.63.63,0,0,0,.73,0,.54.54,0,0,0,.18-.23,1.86,1.86,0,0,0,0-.4Z"/><rect class="cls-1" x="322.92" y="78.38" width="0.95" height="4.54"/><path class="cls-1" d="M324,83h-1.17V78.27H324Zm-1-.22h.73V78.5H323Z"/><rect class="cls-1" x="322.92" y="78.38" width="0.95" height="4.54"/><path class="cls-1" d="M324,83h-1.17V78.27H324Zm-1-.22h.73V78.5H323Z"/><path class="cls-1" d="M324.39,79.64h1l.85,2.33.84-2.33h1l-1.26,3.16-.23.57a1.73,1.73,0,0,1-.24.44.77.77,0,0,1-.26.25,1.08,1.08,0,0,1-.36.15,2.28,2.28,0,0,1-.48.05,3.07,3.07,0,0,1-.53-.05l-.09-.68a3.18,3.18,0,0,0,.4,0,.63.63,0,0,0,.49-.18,1.37,1.37,0,0,0,.24-.45Z"/><path class="cls-1" d="M325.24,84.37a2.65,2.65,0,0,1-.56-.05h-.08l-.11-.92.15,0c.42.07.65,0,.78-.11a1,1,0,0,0,.21-.37l-1.41-3.42h1.26l.77,2.12.76-2.12h1.23l-1.55,3.9a2.59,2.59,0,0,1-.26.46,1,1,0,0,1-.29.28,1.17,1.17,0,0,1-.39.16A2,2,0,0,1,325.24,84.37Zm-.43-.26a2.21,2.21,0,0,0,.89,0A1.06,1.06,0,0,0,326,84a1,1,0,0,0,.23-.22,2.55,2.55,0,0,0,.23-.42l1.42-3.58h-.73l-.92,2.56-.93-2.56h-.76l1.31,3.18v0a1.16,1.16,0,0,1-.27.49.89.89,0,0,1-.84.2Z"/><path class="cls-1" d="M324.39,79.64h1l.85,2.33.84-2.33h1l-1.26,3.16-.23.57a1.73,1.73,0,0,1-.24.44.77.77,0,0,1-.26.25,1.08,1.08,0,0,1-.36.15,2.28,2.28,0,0,1-.48.05,3.07,3.07,0,0,1-.53-.05l-.09-.68a3.18,3.18,0,0,0,.4,0,.63.63,0,0,0,.49-.18,1.37,1.37,0,0,0,.24-.45Z"/><path class="cls-1" d="M325.24,84.37a2.65,2.65,0,0,1-.56-.05h-.08l-.11-.92.15,0c.42.07.65,0,.78-.11a1,1,0,0,0,.21-.37l-1.41-3.42h1.26l.77,2.12.76-2.12h1.23l-1.55,3.9a2.59,2.59,0,0,1-.26.46,1,1,0,0,1-.29.28,1.17,1.17,0,0,1-.39.16A2,2,0,0,1,325.24,84.37Zm-.43-.26a2.21,2.21,0,0,0,.89,0A1.06,1.06,0,0,0,326,84a1,1,0,0,0,.23-.22,2.55,2.55,0,0,0,.23-.42l1.42-3.58h-.73l-.92,2.56-.93-2.56h-.76l1.31,3.18v0a1.16,1.16,0,0,1-.27.49.89.89,0,0,1-.84.2Z"/><rect class="cls-1" x="287.56" y="63.36" width="40.31" height="4.25"/><path class="cls-1" d="M87,100a3.47,3.47,0,0,1-1.25,2.81,5.26,5.26,0,0,1-3.43,1,6.86,6.86,0,0,1-2.6-.44,6.32,6.32,0,0,1-2-1.39l.74-.75a5.66,5.66,0,0,0,.91.78,4.5,4.5,0,0,0,.9.51,4,4,0,0,0,1,.27,6.65,6.65,0,0,0,1.14.08,4.11,4.11,0,0,0,2.61-.75A2.52,2.52,0,0,0,86,100a2.38,2.38,0,0,0-.76-2,2.65,2.65,0,0,0-.37-.27,3,3,0,0,0-.4-.19,4.42,4.42,0,0,0-.51-.16c-.2,0-.44-.09-.72-.12l-1.62-.26a4.7,4.7,0,0,1-2.47-1A3.13,3.13,0,0,1,78,93.52a3.54,3.54,0,0,1,1.16-2.78,4.63,4.63,0,0,1,3.17-1,6,6,0,0,1,2.2.36,6.42,6.42,0,0,1,1.8,1.14l-.68.68a6.17,6.17,0,0,0-.65-.52,4,4,0,0,0-.73-.41,3.8,3.8,0,0,0-.9-.27,7.37,7.37,0,0,0-1.1-.08,3.43,3.43,0,0,0-2.37.76,2.69,2.69,0,0,0-.85,2.1,2.24,2.24,0,0,0,.72,1.82,3.44,3.44,0,0,0,.93.53,5.71,5.71,0,0,0,1.14.33l1.49.23a6.86,6.86,0,0,1,1.51.34,3.49,3.49,0,0,1,1,.57,3.41,3.41,0,0,1,.88,1.17A3.64,3.64,0,0,1,87,100"/><path class="cls-1" d="M82.34,104.06a7.14,7.14,0,0,1-2.69-.45,6.6,6.6,0,0,1-2.09-1.44L77.4,102l1.06-1.07.16.16a6.41,6.41,0,0,0,.88.76,3.84,3.84,0,0,0,.86.48,3.67,3.67,0,0,0,.93.26,7.41,7.41,0,0,0,1.11.08,3.94,3.94,0,0,0,2.47-.7,2.3,2.3,0,0,0,.87-1.94,2.17,2.17,0,0,0-.68-1.78,2.36,2.36,0,0,0-.34-.24,1.51,1.51,0,0,0-.36-.18,2.59,2.59,0,0,0-.49-.15l-.7-.12-1.61-.26A5,5,0,0,1,79,96.25a3.38,3.38,0,0,1-1.18-2.73A3.73,3.73,0,0,1,79,90.58a4.86,4.86,0,0,1,3.32-1.09,6.22,6.22,0,0,1,2.28.38,6.67,6.67,0,0,1,1.87,1.18l.18.16-1,1-.16-.15a5.77,5.77,0,0,0-.62-.51,3.51,3.51,0,0,0-.69-.38,3.39,3.39,0,0,0-.85-.25,5.67,5.67,0,0,0-1.06-.09,3.26,3.26,0,0,0-2.22.7,2.45,2.45,0,0,0-.77,1.94,2,2,0,0,0,.64,1.64,2.86,2.86,0,0,0,.86.5,4.67,4.67,0,0,0,1.09.31l1.5.24a7.37,7.37,0,0,1,1.55.35,3.55,3.55,0,0,1,1,.61,3.41,3.41,0,0,1,.94,1.24,3.81,3.81,0,0,1,.35,1.63,3.68,3.68,0,0,1-1.33,3A5.48,5.48,0,0,1,82.34,104.06ZM78,102a5.84,5.84,0,0,0,1.78,1.19,6.67,6.67,0,0,0,2.52.42,5,5,0,0,0,3.29-1A3.25,3.25,0,0,0,86.8,100a3.37,3.37,0,0,0-.3-1.44,3.07,3.07,0,0,0-.83-1.08,3.17,3.17,0,0,0-.9-.54,7.14,7.14,0,0,0-1.46-.33l-1.5-.23A5.56,5.56,0,0,1,80.62,96a3.56,3.56,0,0,1-1-.57,2.45,2.45,0,0,1-.8-2,2.91,2.91,0,0,1,.92-2.27,3.67,3.67,0,0,1,2.52-.82,6.59,6.59,0,0,1,1.14.09,4.24,4.24,0,0,1,1,.28,4.38,4.38,0,0,1,.77.43c.17.12.34.26.51.4l.36-.36a6.05,6.05,0,0,0-1.56-.94,5.68,5.68,0,0,0-2.11-.35,4.45,4.45,0,0,0-3,1,3.28,3.28,0,0,0-1.08,2.61,2.87,2.87,0,0,0,1,2.38,4.45,4.45,0,0,0,2.36,1l1.61.25c.29,0,.54.09.74.13a5,5,0,0,1,.54.17,2.25,2.25,0,0,1,.44.21l.39.28a2.65,2.65,0,0,1,.84,2.13,2.76,2.76,0,0,1-1,2.29,4.35,4.35,0,0,1-2.75.8,8.42,8.42,0,0,1-1.18-.08,4.36,4.36,0,0,1-1-.29,5.22,5.22,0,0,1-1-.53,7.25,7.25,0,0,1-.78-.65Z"/><polygon class="cls-1" points="92.27 89.83 93.32 89.83 93.32 102.78 100.69 102.78 100.69 103.72 92.27 103.72 92.27 89.83"/><path class="cls-1" d="M100.92,104H92V89.61h1.51v13h7.37Zm-8.43-.45h8V103H93.09v-13h-.6Z"/><polygon class="cls-1" points="105.37 89.83 113.8 89.83 113.8 90.77 106.42 90.77 106.42 96.25 112.7 96.25 112.7 97.19 106.42 97.19 106.42 102.78 113.8 102.78 113.8 103.72 105.37 103.72 105.37 89.83"/><path class="cls-1" d="M114,104h-8.87V89.61H114V91h-7.37v5h6.28v1.38h-6.28v5.15H114Zm-8.42-.45h8V103H106.2V97h6.28v-.48H106.2V90.55h7.37v-.49h-8Z"/><polygon class="cls-1" points="118.98 89.83 127.41 89.83 127.41 90.77 120.04 90.77 120.04 96.25 126.32 96.25 126.32 97.19 120.04 97.19 120.04 102.78 127.41 102.78 127.41 103.72 118.98 103.72 118.98 89.83"/><path class="cls-1" d="M127.63,104h-8.87V89.61h8.87V91h-7.37v5h6.28v1.38h-6.28v5.15h7.37Zm-8.42-.45h8V103h-7.37V97h6.28v-.48h-6.28V90.55h7.37v-.49h-8Z"/><path class="cls-1" d="M140.83,93.83a2.85,2.85,0,0,0-.91-2.31,3.58,3.58,0,0,0-2.35-.75h-3.92V96.9h3.92a3.53,3.53,0,0,0,2.35-.76,2.83,2.83,0,0,0,.91-2.31m1,0a4.3,4.3,0,0,1-.32,1.7,3.81,3.81,0,0,1-.88,1.26,3.74,3.74,0,0,1-1.33.78,5.25,5.25,0,0,1-1.66.26h-4v5.89H132.6V89.84h5.09a5,5,0,0,1,1.66.26,3.6,3.6,0,0,1,2.21,2,4.28,4.28,0,0,1,.32,1.69"/><path class="cls-1" d="M133.87,104h-1.5V89.61h5.32a5.2,5.2,0,0,1,1.74.28,3.72,3.72,0,0,1,1.4.83,3.84,3.84,0,0,1,.93,1.33,4.86,4.86,0,0,1,0,3.57,3.85,3.85,0,0,1-2.33,2.16,5.47,5.47,0,0,1-1.74.28h-3.82Zm-1.05-.45h.6V97.61h4.27a5,5,0,0,0,1.59-.25,3.49,3.49,0,0,0,1.25-.74,3.57,3.57,0,0,0,.82-1.18,4.44,4.44,0,0,0,0-3.21,3.47,3.47,0,0,0-.82-1.18,3.64,3.64,0,0,0-1.25-.74,5.09,5.09,0,0,0-1.59-.25h-4.87Zm4.75-6.38h-4.15V90.55h4.15a3.8,3.8,0,0,1,2.49.8,3.61,3.61,0,0,1,0,5A3.8,3.8,0,0,1,137.57,97.12Zm-3.7-.45h3.7a3.35,3.35,0,0,0,2.21-.7,2.64,2.64,0,0,0,.82-2.14,2.6,2.6,0,0,0-.82-2.13,3.36,3.36,0,0,0-2.21-.7h-3.7Z"/><polygon class="cls-1" points="153.78 89.83 162.2 89.83 162.2 90.77 154.83 90.77 154.83 96.25 161.11 96.25 161.11 97.19 154.83 97.19 154.83 102.78 162.2 102.78 162.2 103.72 153.78 103.72 153.78 89.83"/><path class="cls-1" d="M162.42,104h-8.87V89.61h8.87V91h-7.37v5h6.28v1.38h-6.28v5.15h7.37ZM154,103.5h8V103H154.6V97h6.28v-.48H154.6V90.55H162v-.49h-8Z"/><path class="cls-1" d="M175.54,100a3.47,3.47,0,0,1-1.25,2.81,5.28,5.28,0,0,1-3.43,1,6.91,6.91,0,0,1-2.61-.44,6.28,6.28,0,0,1-2-1.39l.74-.75a6.09,6.09,0,0,0,.9.78,4.87,4.87,0,0,0,.91.51,4,4,0,0,0,1,.27,6.65,6.65,0,0,0,1.14.08,4.13,4.13,0,0,0,2.61-.75,2.52,2.52,0,0,0,1-2.11,2.41,2.41,0,0,0-.76-2,3.4,3.4,0,0,0-.37-.27,3,3,0,0,0-.4-.19,4.06,4.06,0,0,0-.52-.16,6.69,6.69,0,0,0-.72-.12l-1.61-.26a4.7,4.7,0,0,1-2.47-1,3.13,3.13,0,0,1-1.11-2.56,3.51,3.51,0,0,1,1.16-2.78,4.63,4.63,0,0,1,3.17-1,5.91,5.91,0,0,1,2.19.36,6.33,6.33,0,0,1,1.81,1.14l-.69.68a6.07,6.07,0,0,0-.64-.52,4.3,4.3,0,0,0-.73-.41,4,4,0,0,0-.9-.27,7.37,7.37,0,0,0-1.1-.08,3.41,3.41,0,0,0-2.37.76,2.66,2.66,0,0,0-.85,2.1,2.24,2.24,0,0,0,.72,1.82,3.44,3.44,0,0,0,.93.53,5.62,5.62,0,0,0,1.13.33l1.5.23a7,7,0,0,1,1.51.34,3.3,3.3,0,0,1,1,.57,3.44,3.44,0,0,1,.89,1.17,3.64,3.64,0,0,1,.32,1.53"/><path class="cls-1" d="M170.86,104.06a7.1,7.1,0,0,1-2.69-.45,6.49,6.49,0,0,1-2.09-1.44l-.16-.16,1.06-1.07.16.16a6.38,6.38,0,0,0,.87.76,4.14,4.14,0,0,0,.87.48,3.56,3.56,0,0,0,.93.26,7.41,7.41,0,0,0,1.11.08,3.94,3.94,0,0,0,2.47-.7,2.3,2.3,0,0,0,.87-1.94,2.17,2.17,0,0,0-.68-1.78,2.36,2.36,0,0,0-.34-.24,1.73,1.73,0,0,0-.36-.18,2.59,2.59,0,0,0-.49-.15l-.7-.12-1.62-.26a5,5,0,0,1-2.58-1.06,3.39,3.39,0,0,1-1.19-2.73,3.73,3.73,0,0,1,1.24-2.94,4.86,4.86,0,0,1,3.32-1.09,6.22,6.22,0,0,1,2.28.38A6.49,6.49,0,0,1,175,91.05l.19.16-1,1-.16-.15a5.77,5.77,0,0,0-.62-.51,4.55,4.55,0,0,0-.69-.38,3.39,3.39,0,0,0-.85-.25,5.67,5.67,0,0,0-1.06-.09,3.26,3.26,0,0,0-2.22.7,2.45,2.45,0,0,0-.77,1.94,2,2,0,0,0,.64,1.64,3,3,0,0,0,.86.5,4.67,4.67,0,0,0,1.09.31l1.5.24a7.53,7.53,0,0,1,1.55.35,3.49,3.49,0,0,1,1,.62,3.4,3.4,0,0,1,.94,1.23,3.81,3.81,0,0,1,.34,1.63,3.65,3.65,0,0,1-1.33,3A5.45,5.45,0,0,1,170.86,104.06Zm-4.3-2.06a5.61,5.61,0,0,0,1.78,1.19,6.64,6.64,0,0,0,2.52.42,5.06,5.06,0,0,0,3.29-1,3.22,3.22,0,0,0,1.16-2.63,3.37,3.37,0,0,0-.3-1.44,3,3,0,0,0-.82-1.08,3.17,3.17,0,0,0-.9-.54,7.14,7.14,0,0,0-1.46-.33l-1.5-.23a5.4,5.4,0,0,1-1.19-.34,3.42,3.42,0,0,1-1-.57,2.45,2.45,0,0,1-.8-2,2.91,2.91,0,0,1,.92-2.27,3.66,3.66,0,0,1,2.52-.82,6.59,6.59,0,0,1,1.14.09,4.24,4.24,0,0,1,.95.28,5.13,5.13,0,0,1,.77.43c.17.12.34.26.51.4l.35-.36a6,6,0,0,0-1.55-.94,5.75,5.75,0,0,0-2.11-.35,4.43,4.43,0,0,0-3,1,3.28,3.28,0,0,0-1.09,2.61,2.9,2.9,0,0,0,1,2.38,4.52,4.52,0,0,0,2.36,1l1.62.25c.29,0,.54.09.74.13a5,5,0,0,1,.54.17,2.15,2.15,0,0,1,.43.21,4.21,4.21,0,0,1,.4.28,2.65,2.65,0,0,1,.84,2.13,2.76,2.76,0,0,1-1,2.29,4.35,4.35,0,0,1-2.75.8,8.42,8.42,0,0,1-1.18-.08,4.58,4.58,0,0,1-1-.29,5.22,5.22,0,0,1-.95-.53,7.19,7.19,0,0,1-.77-.65Z"/><path class="cls-1" d="M188.82,100a3.47,3.47,0,0,1-1.25,2.81,5.28,5.28,0,0,1-3.43,1,6.91,6.91,0,0,1-2.61-.44,6.28,6.28,0,0,1-2-1.39l.74-.75a6.09,6.09,0,0,0,.9.78,4.87,4.87,0,0,0,.91.51,4,4,0,0,0,1,.27,6.65,6.65,0,0,0,1.14.08,4.13,4.13,0,0,0,2.61-.75,2.52,2.52,0,0,0,1-2.11,2.41,2.41,0,0,0-.76-2,3.4,3.4,0,0,0-.37-.27,3,3,0,0,0-.4-.19,4.06,4.06,0,0,0-.52-.16,6.69,6.69,0,0,0-.72-.12l-1.61-.26a4.7,4.7,0,0,1-2.47-1,3.13,3.13,0,0,1-1.11-2.56A3.51,3.51,0,0,1,181,90.74a4.63,4.63,0,0,1,3.17-1,5.91,5.91,0,0,1,2.19.36,6.33,6.33,0,0,1,1.81,1.14l-.69.68a5.2,5.2,0,0,0-.64-.52,4.3,4.3,0,0,0-.73-.41,4,4,0,0,0-.9-.27,7.37,7.37,0,0,0-1.1-.08,3.43,3.43,0,0,0-2.37.76,2.69,2.69,0,0,0-.85,2.1,2.24,2.24,0,0,0,.72,1.82,3.44,3.44,0,0,0,.93.53,5.62,5.62,0,0,0,1.13.33l1.5.23a7,7,0,0,1,1.51.34,3.3,3.3,0,0,1,1,.57,3.44,3.44,0,0,1,.89,1.17,3.64,3.64,0,0,1,.32,1.53"/><path class="cls-1" d="M184.14,104.06a7.1,7.1,0,0,1-2.69-.45,6.6,6.6,0,0,1-2.09-1.44l-.16-.16,1.06-1.07.16.17a7,7,0,0,0,.87.75,4.14,4.14,0,0,0,.87.48,3.56,3.56,0,0,0,.93.26,7.41,7.41,0,0,0,1.11.08,3.94,3.94,0,0,0,2.47-.7,2.3,2.3,0,0,0,.87-1.94,2.17,2.17,0,0,0-.68-1.78,2.36,2.36,0,0,0-.34-.24,1.73,1.73,0,0,0-.36-.18,2.59,2.59,0,0,0-.49-.15l-.7-.12-1.62-.26a5,5,0,0,1-2.58-1.06,3.39,3.39,0,0,1-1.19-2.73,3.73,3.73,0,0,1,1.24-2.94,4.86,4.86,0,0,1,3.32-1.09,6.22,6.22,0,0,1,2.28.38,6.49,6.49,0,0,1,1.86,1.18l.19.16-1,1-.16-.15a5.77,5.77,0,0,0-.62-.51,4.55,4.55,0,0,0-.69-.38,3.39,3.39,0,0,0-.85-.25,5.67,5.67,0,0,0-1.06-.09,3.26,3.26,0,0,0-2.22.7,2.52,2.52,0,0,0-.77,1.94,2,2,0,0,0,.64,1.64,3.06,3.06,0,0,0,.86.51,5.18,5.18,0,0,0,1.09.3l1.5.24a7.53,7.53,0,0,1,1.55.35,3.68,3.68,0,0,1,2,1.85A3.81,3.81,0,0,1,189,100a3.65,3.65,0,0,1-1.33,3A5.45,5.45,0,0,1,184.14,104.06Zm-4.3-2.06a5.84,5.84,0,0,0,1.78,1.19,6.64,6.64,0,0,0,2.52.42,5.06,5.06,0,0,0,3.29-1,3.22,3.22,0,0,0,1.16-2.63,3.37,3.37,0,0,0-.3-1.44,2.93,2.93,0,0,0-.82-1.08,3.17,3.17,0,0,0-.9-.54,7.14,7.14,0,0,0-1.46-.33l-1.5-.23a5.4,5.4,0,0,1-1.19-.34,3.67,3.67,0,0,1-1-.57,2.46,2.46,0,0,1-.8-2,2.91,2.91,0,0,1,.92-2.27,3.67,3.67,0,0,1,2.52-.82,6.59,6.59,0,0,1,1.14.09,4.24,4.24,0,0,1,.95.28,5.13,5.13,0,0,1,.77.43c.17.12.34.26.51.4l.35-.36a6,6,0,0,0-1.55-.94,5.71,5.71,0,0,0-2.11-.35,4.43,4.43,0,0,0-3,1A3.28,3.28,0,0,0,180,93.52a2.9,2.9,0,0,0,1,2.38,4.52,4.52,0,0,0,2.36,1l1.62.25c.29,0,.54.09.74.13a5,5,0,0,1,.54.17,2.15,2.15,0,0,1,.43.21,4.21,4.21,0,0,1,.4.28A2.65,2.65,0,0,1,188,100a2.76,2.76,0,0,1-1,2.29,4.35,4.35,0,0,1-2.75.8,8.42,8.42,0,0,1-1.18-.08,4.36,4.36,0,0,1-1-.29,5,5,0,0,1-1-.53,7.19,7.19,0,0,1-.77-.65Z"/><polygon class="cls-1" points="194.06 89.83 202.49 89.83 202.49 90.77 195.12 90.77 195.12 96.25 201.4 96.25 201.4 97.19 195.12 97.19 195.12 102.78 202.49 102.78 202.49 103.72 194.06 103.72 194.06 89.83"/><path class="cls-1" d="M202.71,104h-8.87V89.61h8.87V91h-7.37v5h6.28v1.38h-6.28v5.15h7.37Zm-8.42-.45h8V103h-7.37V97h6.28v-.48h-6.28V90.55h7.37v-.49h-8Z"/><polygon class="cls-1" points="208.73 91.65 208.73 103.72 207.68 103.72 207.68 89.83 208.73 89.83 216.75 101.87 216.75 89.83 217.8 89.83 217.8 103.72 216.75 103.72 208.73 91.65"/><path class="cls-1" d="M218,104h-1.4L209,92.4V104h-1.51V89.61h1.4l7.67,11.52V89.61H218Zm-1.15-.45h.7V90.06H217v12.55l-8.36-12.55h-.71V103.5h.6V90.9Z"/><polygon class="cls-1" points="227.67 103.72 226.62 103.72 226.62 90.77 222.48 90.77 222.48 89.83 231.82 89.83 231.82 90.77 227.67 90.77 227.67 103.72"/><path class="cls-1" d="M227.89,104h-1.5V91h-4.14V89.61h9.8V91h-4.16Zm-1-.45h.6v-13h4.16v-.49h-8.9v.49h4.14Z"/><rect class="cls-1" x="236.5" y="89.84" width="1.05" height="13.89"/><path class="cls-1" d="M237.78,104h-1.51V89.61h1.51Zm-1.05-.45h.6V90.06h-.6Z"/><path class="cls-1" d="M244.61,99.41h5.81l-2.9-8.17Zm6.15.94h-6.48l-1.21,3.37h-1.13l5.11-13.88H248l5.11,13.88H252Z"/><path class="cls-1" d="M253.42,104h-1.61l-1.21-3.38h-6.16L243.23,104h-1.61l5.27-14.34h1.25l.06.15Zm-1.3-.45h.65l-4.94-13.44h-.62l-5,13.44h.65l1.21-3.38h6.8Zm-1.38-3.86h-6.45l3.23-9.07Zm-5.81-.45h5.18l-2.59-7.28Z"/><polygon class="cls-1" points="257.48 89.83 258.54 89.83 258.54 102.78 265.91 102.78 265.91 103.72 257.48 103.72 257.48 89.83"/><path class="cls-1" d="M266.13,104h-8.87V89.61h1.5v13h7.37Zm-8.42-.45h8V103h-7.37v-13h-.6Z"/><path class="cls-1" d="M278.74,100a3.44,3.44,0,0,1-1.25,2.81,5.26,5.26,0,0,1-3.43,1,6.86,6.86,0,0,1-2.6-.44,6.32,6.32,0,0,1-2-1.39l.74-.75a5.66,5.66,0,0,0,.91.78,4.5,4.5,0,0,0,.9.51,4.14,4.14,0,0,0,1,.27,6.65,6.65,0,0,0,1.14.08,4.11,4.11,0,0,0,2.61-.75,2.52,2.52,0,0,0,1-2.11,2.41,2.41,0,0,0-.76-2,2.65,2.65,0,0,0-.37-.27,3,3,0,0,0-.4-.19,4.42,4.42,0,0,0-.51-.16c-.2,0-.44-.09-.72-.12l-1.62-.26a4.7,4.7,0,0,1-2.47-1,3.13,3.13,0,0,1-1.11-2.56,3.54,3.54,0,0,1,1.16-2.78,4.63,4.63,0,0,1,3.17-1,5.91,5.91,0,0,1,2.19.36,6.33,6.33,0,0,1,1.81,1.14l-.68.68a6.17,6.17,0,0,0-.65-.52A4,4,0,0,0,276,91a3.8,3.8,0,0,0-.9-.27,7.27,7.27,0,0,0-1.1-.08,3.43,3.43,0,0,0-2.37.76,2.69,2.69,0,0,0-.85,2.1,2.24,2.24,0,0,0,.72,1.82,3.44,3.44,0,0,0,.93.53,5.71,5.71,0,0,0,1.14.33l1.5.23a6.89,6.89,0,0,1,1.5.34,3.38,3.38,0,0,1,1.85,1.74,3.64,3.64,0,0,1,.32,1.53"/><path class="cls-1" d="M274.06,104.06a7.14,7.14,0,0,1-2.69-.45,6.6,6.6,0,0,1-2.09-1.44l-.16-.16,1.06-1.07.16.17a6.4,6.4,0,0,0,.88.75,3.84,3.84,0,0,0,.86.48,4.13,4.13,0,0,0,.93.26,7.41,7.41,0,0,0,1.11.08,3.94,3.94,0,0,0,2.47-.7,2.3,2.3,0,0,0,.87-1.94,2.17,2.17,0,0,0-.68-1.78,2.36,2.36,0,0,0-.34-.24,1.73,1.73,0,0,0-.36-.18,2.59,2.59,0,0,0-.49-.15l-.69-.12-1.62-.26a5,5,0,0,1-2.59-1.06,3.39,3.39,0,0,1-1.19-2.73,3.73,3.73,0,0,1,1.24-2.94,4.86,4.86,0,0,1,3.32-1.09,6.22,6.22,0,0,1,2.28.38,6.67,6.67,0,0,1,1.87,1.18l.18.16-1,1-.16-.15a5.77,5.77,0,0,0-.62-.51,4.11,4.11,0,0,0-.69-.38,3.44,3.44,0,0,0-.84-.25,5.85,5.85,0,0,0-1.07-.09,3.26,3.26,0,0,0-2.22.7,2.45,2.45,0,0,0-.77,1.94,2,2,0,0,0,.64,1.64,3.06,3.06,0,0,0,.86.51,5.35,5.35,0,0,0,1.09.3l1.5.24a7.37,7.37,0,0,1,1.55.35,3.37,3.37,0,0,1,1,.62,3.29,3.29,0,0,1,.94,1.23A3.81,3.81,0,0,1,279,100a3.68,3.68,0,0,1-1.33,3A5.48,5.48,0,0,1,274.06,104.06Zm-4.3-2.06a5.84,5.84,0,0,0,1.78,1.19,6.67,6.67,0,0,0,2.52.42,5.06,5.06,0,0,0,3.29-1,3.22,3.22,0,0,0,1.17-2.63,3.53,3.53,0,0,0-.3-1.44,3.07,3.07,0,0,0-.83-1.08,3.17,3.17,0,0,0-.9-.54,7.14,7.14,0,0,0-1.46-.33l-1.5-.23a5.73,5.73,0,0,1-1.19-.34,3.67,3.67,0,0,1-1-.57,2.45,2.45,0,0,1-.8-2,2.91,2.91,0,0,1,.92-2.27,3.67,3.67,0,0,1,2.52-.82,6.59,6.59,0,0,1,1.14.09,4.24,4.24,0,0,1,.95.28,5.13,5.13,0,0,1,.77.43c.17.12.34.26.51.4l.36-.36a6.05,6.05,0,0,0-1.56-.94,5.68,5.68,0,0,0-2.11-.35,4.45,4.45,0,0,0-3,1A3.28,3.28,0,0,0,270,93.52a2.87,2.87,0,0,0,1,2.38,4.45,4.45,0,0,0,2.35,1l1.62.25c.29,0,.54.09.74.13a5,5,0,0,1,.54.17,2.56,2.56,0,0,1,.44.21l.39.28a2.65,2.65,0,0,1,.84,2.13,2.76,2.76,0,0,1-1,2.29,4.35,4.35,0,0,1-2.75.8,8.42,8.42,0,0,1-1.18-.08,4.36,4.36,0,0,1-1-.29,5,5,0,0,1-1-.53,7.19,7.19,0,0,1-.77-.65Z"/></svg>